0
SECTION
2
HEADER
9
$INSUNITS
70
4
9
$ACADVER
1
AC1014
9
$HANDSEED
5
FFFF
0
ENDSEC
0
SECTION
2
TABLES
0
TABLE
2
VPORT
5
8
100
AcDbSymbolTable
0
ENDTAB
0
TABLE
2
LTYPE
5
5
100
AcDbSymbolTable
0
LTYPE
5
14
100
AcDbSymbolTableRecord
100
AcDbLinetypeTableRecord
2
BYBLOCK
70
0
0
LTYPE
5
15
100
AcDbSymbolTableRecord
100
AcDbLinetypeTableRecord
2
BYLAYER
70
0
0
ENDTAB
0
TABLE
2
LAYER
5
2
100
AcDbSymbolTable
70
2
0
LAYER
5
50
100
AcDbSymbolTableRecord
100
AcDbLayerTableRecord
2
0
70
0
6
CONTINUOUS
0
ENDTAB
0
TABLE
2
STYLE
5
3
100
AcDbSymbolTable
70
1
0
STYLE
5
11
100
AcDbSymbolTableRecord
100
AcDbTextStyleTableRecord
2
STANDARD
70
0
0
ENDTAB
0
TABLE
2
VIEW
5
6
100
AcDbSymbolTable
70
0
0
ENDTAB
0
TABLE
2
UCS
5
7
100
AcDbSymbolTable
70
0
0
ENDTAB
0
TABLE
2
APPID
5
9
100
AcDbSymbolTable
70
2
0
APPID
5
12
100
AcDbSymbolTableRecord
100
AcDbRegAppTableRecord
2
ACAD
70
0
0
ENDTAB
0
TABLE
2
DIMSTYLE
5
A
100
AcDbSymbolTable
70
1
0
ENDTAB
0
TABLE
2
BLOCK_RECORD
5
1
100
AcDbSymbolTable
70
1
0
BLOCK_RECORD
5
1F
100
AcDbSymbolTableRecord
100
AcDbBlockTableRecord
2
*MODEL_SPACE
0
BLOCK_RECORD
5
1B
100
AcDbSymbolTableRecord
100
AcDbBlockTableRecord
2
*PAPER_SPACE
0
ENDTAB
0
ENDSEC
0
SECTION
2
BLOCKS
0
BLOCK
5
20
100
AcDbEntity
100
AcDbBlockBegin
2
*MODEL_SPACE
0
ENDBLK
5
21
100
AcDbEntity
100
AcDbBlockEnd
0
BLOCK
5
1C
100
AcDbEntity
100
AcDbBlockBegin
2
*PAPER_SPACE
0
ENDBLK
5
1D
100
AcDbEntity
100
AcDbBlockEnd
0
ENDSEC
0
SECTION
2
ENTITIES
0
LWPOLYLINE
5
100
100
AcDbEntity
8
0
100
AcDbPolyline
90
8
70
1
43
0.0
10
10.050124214148358
20
104.06227605403814
10
10.05012421414836
20
8.0499760540382237
42
0.4142135623730836
10
11.550124214148312
20
6.5499760540382042
10
359.92514842829672
20
6.5499760540382006
42
0.41421356237310414
10
361.42514842829667
20
8.0499760540382326
10
361.42514842829667
20
104.06227605403814
42
0.41421356237310197
10
359.92514842829672
20
105.56227605403816
10
11.550124214148321
20
105.56227605403816
42
0.41421356237308377
0
LINE
5
101
100
AcDbEntity
8
0
100
AcDbLine
10
0
20
0
30
0
11
0
21
95.25
31
0
0
LINE
5
102
100
AcDbEntity
8
0
100
AcDbLine
10
44.481124214148352
20
105.55051004713619
30
0
11
44.481124214148352
21
107.55051004713619
31
0
0
LINE
5
103
100
AcDbEntity
8
0
100
AcDbLine
10
53.981124214148366
20
107.55051004713619
30
0
11
53.981124214148366
21
105.55051004713619
31
0
0
LINE
5
104
100
AcDbEntity
8
0
100
AcDbLine
10
44.481124214148352
20
107.55051004713619
30
0
11
53.981124214148366
21
107.55051004713619
31
0
0
LINE
5
105
100
AcDbEntity
8
0
100
AcDbLine
10
44.481124214148352
20
109.95051004713619
30
0
11
53.981124214148366
21
109.95051004713619
31
0
0
LINE
5
106
100
AcDbEntity
8
0
100
AcDbLine
10
168.83102421414836
20
111.55051004713619
30
0
11
168.83102421414836
21
105.55051004713619
31
0
0
LINE
5
107
100
AcDbEntity
8
0
100
AcDbLine
10
178.83102421414836
20
111.55051004713619
30
0
11
178.83102421414836
21
105.55051004713619
31
0
0
LINE
5
108
100
AcDbEntity
8
0
100
AcDbLine
10
168.83102421414836
20
111.55051004713619
30
0
11
178.83102421414836
21
111.55051004713619
31
0
0
LINE
5
109
100
AcDbEntity
8
0
100
AcDbLine
10
170.83102421414836
20
113.9201734636824
30
0
11
176.83102421414839
21
113.9201734636824
31
0
0
CIRCLE
5
110
100
AcDbEntity
8
0
100
AcDbCircle
10
154.77947499999993
20
95.250509999999963
30
0
40
2
210
0
220
0
230
1
0
CIRCLE
5
111
100
AcDbEntity
8
0
100
AcDbCircle
10
297.65669921414832
20
95.253701646914038
30
0
40
2
210
0
220
0
230
1
0
CIRCLE
5
112
100
AcDbEntity
8
0
100
AcDbCircle
10
135.72977500000007
20
95.250509999999963
30
0
40
2
210
0
220
0
230
1
0
CIRCLE
5
113
100
AcDbEntity
8
0
100
AcDbCircle
10
173.83147500000004
20
95.250509999999963
30
0
40
2
210
0
220
0
230
1
0
CIRCLE
5
114
100
AcDbEntity
8
0
100
AcDbCircle
10
78.581175000000059
20
95.250509999999963
30
0
40
2
210
0
220
0
230
1
0
CIRCLE
5
115
100
AcDbEntity
8
0
100
AcDbCircle
10
250.03147500000006
20
95.250509999999963
30
0
40
2
210
0
220
0
230
1
0
CIRCLE
5
116
100
AcDbEntity
8
0
100
AcDbCircle
10
192.88147500000005
20
95.250509999999963
30
0
40
2
210
0
220
0
230
1
0
CIRCLE
5
117
100
AcDbEntity
8
0
100
AcDbCircle
10
211.93147499999995
20
95.250509999999963
30
0
40
2
210
0
220
0
230
1
0
LINE
5
118
100
AcDbEntity
8
0
100
AcDbLine
10
0
20
95.25
30
0
11
19.050000000000011
21
95.25
31
0
0
CIRCLE
5
119
100
AcDbEntity
8
0
100
AcDbCircle
10
97.631174999999999
20
95.250509999999963
30
0
40
2
210
0
220
0
230
1
0
CIRCLE
5
120
100
AcDbEntity
8
0
100
AcDbCircle
10
59.53117500000004
20
95.250509999999963
30
0
40
2
210
0
220
0
230
1
0
CIRCLE
5
121
100
AcDbEntity
8
0
100
AcDbCircle
10
116.68117499999994
20
95.250509999999963
30
0
40
2
210
0
220
0
230
1
0
CIRCLE
5
122
100
AcDbEntity
8
0
100
AcDbCircle
10
269.08147499999995
20
95.250509999999963
30
0
40
2
210
0
220
0
230
1
0
CIRCLE
5
123
100
AcDbEntity
8
0
100
AcDbCircle
10
288.13147500000008
20
95.250509999999963
30
0
40
2
210
0
220
0
230
1
0
CIRCLE
5
124
100
AcDbEntity
8
0
100
AcDbCircle
10
307.18092421414843
20
95.250510047136174
30
0
40
2
210
0
220
0
230
1
0
CIRCLE
5
125
100
AcDbEntity
8
0
100
AcDbCircle
10
40.481124214148359
20
95.250510047136174
30
0
40
2
210
0
220
0
230
1
0
CIRCLE
5
126
100
AcDbEntity
8
0
100
AcDbCircle
10
230.98147499999996
20
95.250509999999963
30
0
40
2
210
0
220
0
230
1
0
CIRCLE
5
127
100
AcDbEntity
8
0
100
AcDbCircle
10
352.42537342829894
20
96.492962637491985
30
0
40
2
210
0
220
0
230
1
0
CIRCLE
5
128
100
AcDbEntity
8
0
100
AcDbCircle
10
333.3753734282966
20
96.562626054038191
30
0
40
2
210
0
220
0
230
1
0
CIRCLE
5
129
100
AcDbEntity
8
0
100
AcDbCircle
10
19.050000000000011
20
95.25
30
0
40
2
210
0
220
0
230
1
0
CIRCLE
5
130
100
AcDbEntity
8
0
100
AcDbCircle
10
107.156175
20
76.200509952863797
30
0
40
2
210
0
220
0
230
1
0
CIRCLE
5
131
100
AcDbEntity
8
0
100
AcDbCircle
10
126.20617499999994
20
76.200509999999994
30
0
40
2
210
0
220
0
230
1
0
CIRCLE
5
132
100
AcDbEntity
8
0
100
AcDbCircle
10
69.056175000000025
20
76.200509999999994
30
0
40
2
210
0
220
0
230
1
0
CIRCLE
5
133
100
AcDbEntity
8
0
100
AcDbCircle
10
145.25647499999994
20
76.200509999999994
30
0
40
2
210
0
220
0
230
1
0
CIRCLE
5
134
100
AcDbEntity
8
0
100
AcDbCircle
10
19.050000000000011
20
76.200000000000017
30
0
40
2
210
0
220
0
230
1
0
CIRCLE
5
135
100
AcDbEntity
8
0
100
AcDbCircle
10
240.50647500000002
20
76.200509999999994
30
0
40
2
210
0
220
0
230
1
0
CIRCLE
5
136
100
AcDbEntity
8
0
100
AcDbCircle
10
88.106175000000036
20
76.200509999999994
30
0
40
2
210
0
220
0
230
1
0
CIRCLE
5
137
100
AcDbEntity
8
0
100
AcDbCircle
10
183.35647499999996
20
76.200509999999994
30
0
40
2
210
0
220
0
230
1
0
CIRCLE
5
138
100
AcDbEntity
8
0
100
AcDbCircle
10
164.30647499999995
20
76.200509999999994
30
0
40
2
210
0
220
0
230
1
0
CIRCLE
5
139
100
AcDbEntity
8
0
100
AcDbCircle
10
333.3753734282966
20
77.512626054038208
30
0
40
2
210
0
220
0
230
1
0
CIRCLE
5
140
100
AcDbEntity
8
0
100
AcDbCircle
10
259.55647500000003
20
76.200509999999994
30
0
40
2
210
0
220
0
230
1
0
CIRCLE
5
141
100
AcDbEntity
8
0
100
AcDbCircle
10
202.40647499999983
20
76.200509999999994
30
0
40
2
210
0
220
0
230
1
0
CIRCLE
5
142
100
AcDbEntity
8
0
100
AcDbCircle
10
45.243635000000012
20
76.200509999999994
30
0
40
2
210
0
220
0
230
1
0
CIRCLE
5
143
100
AcDbEntity
8
0
100
AcDbCircle
10
302.418475
20
76.200509999999994
30
0
40
2
210
0
220
0
230
1
0
CIRCLE
5
144
100
AcDbEntity
8
0
100
AcDbCircle
10
278.60647499999993
20
76.200509999999994
30
0
40
2
210
0
220
0
230
1
0
CIRCLE
5
145
100
AcDbEntity
8
0
100
AcDbCircle
10
221.45647499999995
20
76.200509999999994
30
0
40
2
210
0
220
0
230
1
0
CIRCLE
5
146
100
AcDbEntity
8
0
100
AcDbCircle
10
352.42537342829667
20
77.512626054038208
30
0
40
2
210
0
220
0
230
1
0
CIRCLE
5
147
100
AcDbEntity
8
0
100
AcDbCircle
10
245.26847499999997
20
57.15050999999999
30
0
40
2
210
0
220
0
230
1
0
CIRCLE
5
148
100
AcDbEntity
8
0
100
AcDbCircle
10
333.3753734282966
20
58.462626054038196
30
0
40
2
210
0
220
0
230
1
0
CIRCLE
5
149
100
AcDbEntity
8
0
100
AcDbCircle
10
264.31847499999998
20
57.15050999999999
30
0
40
2
210
0
220
0
230
1
0
CIRCLE
5
150
100
AcDbEntity
8
0
100
AcDbCircle
10
42.862385000000039
20
57.15050999999999
30
0
40
2
210
0
220
0
230
1
0
CIRCLE
5
151
100
AcDbEntity
8
0
100
AcDbCircle
10
226.21847500000001
20
57.15050999999999
30
0
40
2
210
0
220
0
230
1
0
CIRCLE
5
152
100
AcDbEntity
8
0
100
AcDbCircle
10
47.624824214148383
20
57.150510047136159
30
0
40
2
210
0
220
0
230
1
0
CIRCLE
5
153
100
AcDbEntity
8
0
100
AcDbCircle
10
295.27392421414839
20
57.150410047136177
30
0
40
2
210
0
220
0
230
1
0
CIRCLE
5
154
100
AcDbEntity
8
0
100
AcDbCircle
10
130.96867499999996
20
57.15050999999999
30
0
40
2
210
0
220
0
230
1
0
CIRCLE
5
155
100
AcDbEntity
8
0
100
AcDbCircle
10
73.818675000000013
20
57.15050999999999
30
0
40
2
210
0
220
0
230
1
0
CIRCLE
5
156
100
AcDbEntity
8
0
100
AcDbCircle
10
19.050000000000011
20
57.15000000000002
30
0
40
2
210
0
220
0
230
1
0
CIRCLE
5
157
100
AcDbEntity
8
0
100
AcDbCircle
10
92.868675000000067
20
57.15050999999999
30
0
40
2
210
0
220
0
230
1
0
CIRCLE
5
158
100
AcDbEntity
8
0
100
AcDbCircle
10
207.16847499999994
20
57.15050999999999
30
0
40
2
210
0
220
0
230
1
0
CIRCLE
5
159
100
AcDbEntity
8
0
100
AcDbCircle
10
352.42537342829667
20
58.462626054038196
30
0
40
2
210
0
220
0
230
1
0
CIRCLE
5
160
100
AcDbEntity
8
0
100
AcDbCircle
10
283.36847499999999
20
57.15050999999999
30
0
40
2
210
0
220
0
230
1
0
CIRCLE
5
161
100
AcDbEntity
8
0
100
AcDbCircle
10
111.91867500000004
20
57.15050999999999
30
0
40
2
210
0
220
0
230
1
0
CIRCLE
5
162
100
AcDbEntity
8
0
100
AcDbCircle
10
169.06847499999995
20
57.15050999999999
30
0
40
2
210
0
220
0
230
1
0
CIRCLE
5
163
100
AcDbEntity
8
0
100
AcDbCircle
10
188.11847499999985
20
57.15050999999999
30
0
40
2
210
0
220
0
230
1
0
CIRCLE
5
164
100
AcDbEntity
8
0
100
AcDbCircle
10
150.01847499999994
20
57.15050999999999
30
0
40
2
210
0
220
0
230
1
0
CIRCLE
5
165
100
AcDbEntity
8
0
100
AcDbCircle
10
280.98747499999996
20
38.100309999999986
30
0
40
2
210
0
220
0
230
1
0
CIRCLE
5
166
100
AcDbEntity
8
0
100
AcDbCircle
10
159.54347499999994
20
38.100309999999986
30
0
40
2
210
0
220
0
230
1
0
CIRCLE
5
167
100
AcDbEntity
8
0
100
AcDbCircle
10
216.69347499999992
20
38.100309999999986
30
0
40
2
210
0
220
0
230
1
0
CIRCLE
5
168
100
AcDbEntity
8
0
100
AcDbCircle
10
197.64347499999991
20
38.100309999999986
30
0
40
2
210
0
220
0
230
1
0
CIRCLE
5
169
100
AcDbEntity
8
0
100
AcDbCircle
10
140.49347499999996
20
38.100309999999986
30
0
40
2
210
0
220
0
230
1
0
CIRCLE
5
170
100
AcDbEntity
8
0
100
AcDbCircle
10
83.34367499999999
20
38.100309999999986
30
0
40
2
210
0
220
0
230
1
0
CIRCLE
5
171
100
AcDbEntity
8
0
100
AcDbCircle
10
42.862385000000039
20
38.100309999999986
30
0
40
2
210
0
220
0
230
1
0
CIRCLE
5
172
100
AcDbEntity
8
0
100
AcDbCircle
10
254.79347500000003
20
38.100309999999986
30
0
40
2
210
0
220
0
230
1
0
CIRCLE
5
173
100
AcDbEntity
8
0
100
AcDbCircle
10
102.39367500000007
20
38.100309999999986
30
0
40
2
210
0
220
0
230
1
0
CIRCLE
5
174
100
AcDbEntity
8
0
100
AcDbCircle
10
121.44367499999987
20
38.100309999999986
30
0
40
2
210
0
220
0
230
1
0
CIRCLE
5
175
100
AcDbEntity
8
0
100
AcDbCircle
10
178.59347499999984
20
38.100309999999986
30
0
40
2
210
0
220
0
230
1
0
CIRCLE
5
176
100
AcDbEntity
8
0
100
AcDbCircle
10
235.74347500000002
20
38.100309999999986
30
0
40
2
210
0
220
0
230
1
0
CIRCLE
5
177
100
AcDbEntity
8
0
100
AcDbCircle
10
307.18092421414843
20
38.100310047136134
30
0
40
2
210
0
220
0
230
1
0
CIRCLE
5
178
100
AcDbEntity
8
0
100
AcDbCircle
10
352.42537342829667
20
39.412626054038199
30
0
40
2
210
0
220
0
230
1
0
CIRCLE
5
179
100
AcDbEntity
8
0
100
AcDbCircle
10
19.050000000000011
20
38.100000000000016
30
0
40
2
210
0
220
0
230
1
0
CIRCLE
5
180
100
AcDbEntity
8
0
100
AcDbCircle
10
52.386724214148366
20
38.100310047136134
30
0
40
2
210
0
220
0
230
1
0
CIRCLE
5
181
100
AcDbEntity
8
0
100
AcDbCircle
10
64.293424214148345
20
38.100310047136134
30
0
40
2
210
0
220
0
230
1
0
CIRCLE
5
182
100
AcDbEntity
8
0
100
AcDbCircle
10
290.51192421414834
20
38.100310047136134
30
0
40
2
210
0
220
0
230
1
0
CIRCLE
5
183
100
AcDbEntity
8
0
100
AcDbCircle
10
328.61237421414836
20
34.599626006902028
30
0
40
2
210
0
220
0
230
1
0
CIRCLE
5
184
100
AcDbEntity
8
0
100
AcDbCircle
10
45.243624214148355
20
19.050350047136188
30
0
40
2
210
0
220
0
230
1
0
CIRCLE
5
185
100
AcDbEntity
8
0
100
AcDbCircle
10
283.36862421414833
20
19.048901966667863
30
0
40
2
210
0
220
0
230
1
0
CIRCLE
5
186
100
AcDbEntity
8
0
100
AcDbCircle
10
128.31637618567837
20
18.83595805125136
30
0
40
2
210
0
220
0
230
1
0
CIRCLE
5
187
100
AcDbEntity
8
0
100
AcDbCircle
10
328.61237421414836
20
15.549626006902027
30
0
40
2
210
0
220
0
230
1
0
CIRCLE
5
188
100
AcDbEntity
8
0
100
AcDbCircle
10
309.41825
20
15.549626006902027
30
0
40
2
210
0
220
0
230
1
0
CIRCLE
5
189
100
AcDbEntity
8
0
100
AcDbCircle
10
45.243624214148355
20
19.050350047136188
30
0
40
2
210
0
220
0
230
1
0
CIRCLE
5
190
100
AcDbEntity
8
0
100
AcDbCircle
10
88.050000000000011
20
19.050000000000011
30
0
40
2
210
0
220
0
230
1
0
CIRCLE
5
191
100
AcDbEntity
8
0
100
AcDbCircle
10
19.050000000000011
20
19.050000000000011
30
0
40
2
210
0
220
0
230
1
0
CIRCLE
5
192
100
AcDbEntity
8
0
100
AcDbCircle
10
347.66237421414826
20
15.549626006902027
30
0
40
2
210
0
220
0
230
1
0
CIRCLE
5
193
100
AcDbEntity
8
0
100
AcDbCircle
10
166.69360180912034
20
19.063225722097982
30
0
40
2
210
0
220
0
230
1
0
CIRCLE
5
194
100
AcDbEntity
8
0
100
AcDbCircle
10
245.26862421414842
20
19.048901966667863
30
0
40
2
210
0
220
0
230
1
0
CIRCLE
5
195
100
AcDbEntity
8
0
100
AcDbCircle
10
204.78737421414834
20
19.048901966667863
30
0
40
2
210
0
220
0
230
1
0
CIRCLE
5
196
100
AcDbEntity
8
0
100
AcDbCircle
10
304.7999242141484
20
66.675510047136186
30
0
40
2
210
0
220
0
230
1
0
LWPOLYLINE
5
197
100
AcDbEntity
8
0
100
AcDbPolyline
90
4
70
1
43
0.0
10
313.73112421414839
20
83.225510047136169
10
313.73112421414839
20
69.225510047136183
10
315.73112421414839
20
69.225510047136183
10
315.73112421414839
20
83.225510047136169
0
LWPOLYLINE
5
198
100
AcDbEntity
8
0
100
AcDbPolyline
90
4
70
1
43
0.0
10
290.93112421414838
20
83.225510047136169
10
290.93112421414838
20
69.225510047136183
10
292.93112421414838
20
69.225510047136183
10
292.93112421414838
20
83.225510047136169
0
LWPOLYLINE
5
199
100
AcDbEntity
8
0
100
AcDbPolyline
90
4
70
1
43
0.0
10
291.93112421414838
20
26.075510047136163
10
291.93112421414838
20
12.075510047136165
10
293.93112421414844
20
12.075510047136165
10
293.93112421414844
20
26.075510047136163
0
LWPOLYLINE
5
200
100
AcDbEntity
8
0
100
AcDbPolyline
90
4
70
1
43
0.0
10
272.93112421414838
20
26.075510047136163
10
272.93112421414838
20
12.075510047136165
10
274.93112421414844
20
12.075510047136165
10
274.93112421414844
20
26.075510047136163
0
LWPOLYLINE
5
201
100
AcDbEntity
8
0
100
AcDbPolyline
90
4
70
1
43
0.0
10
253.73112421414839
20
26.075510047136163
10
253.73112421414839
20
12.075510047136165
10
255.73112421414839
20
12.075510047136165
10
255.73112421414839
20
26.075510047136163
0
LWPOLYLINE
5
202
100
AcDbEntity
8
0
100
AcDbPolyline
90
4
70
1
43
0.0
10
234.73112421414839
20
26.075510047136163
10
234.73112421414839
20
12.075510047136165
10
236.73112421414842
20
12.075510047136165
10
236.73112421414842
20
26.075510047136163
0
LWPOLYLINE
5
203
100
AcDbEntity
8
0
100
AcDbPolyline
90
4
70
1
43
0.0
10
34.431124214148355
20
26.075510047136163
10
34.431124214148355
20
12.075510047136165
10
36.431124214148348
20
12.075510047136165
10
36.431124214148348
20
26.075510047136163
0
LWPOLYLINE
5
204
100
AcDbEntity
8
0
100
AcDbPolyline
90
4
70
1
43
0.0
10
53.931124214148355
20
26.075510047136163
10
53.931124214148355
20
12.075510047136165
10
55.931124214148355
20
12.075510047136165
10
55.931124214148355
20
26.075510047136163
0
LWPOLYLINE
5
205
100
AcDbEntity
8
0
100
AcDbPolyline
90
4
70
1
43
0.0
10
79.531124214148406
20
12.075510047136165
10
79.531124214148406
20
26.075510047136163
10
77.531124214148377
20
26.075510047136163
10
77.531124214148377
20
12.075510047136165
0
LWPOLYLINE
5
206
100
AcDbEntity
8
0
100
AcDbPolyline
90
4
70
1
43
0.0
10
98.531124214148377
20
12.075510047136165
10
98.531124214148377
20
26.075510047136163
10
96.531124214148349
20
26.075510047136163
10
96.531124214148349
20
12.075510047136165
0
LWPOLYLINE
5
207
100
AcDbEntity
8
0
100
AcDbPolyline
90
4
70
1
43
0.0
10
56.931124214148348
20
64.150860047136177
10
56.931124214148348
20
50.150860047136177
10
58.931124214148348
20
50.150860047136177
10
58.931124214148348
20
64.150860047136177
0
LWPOLYLINE
5
208
100
AcDbEntity
8
0
100
AcDbPolyline
90
4
70
1
43
0.0
10
31.931124214148351
20
64.150860047136177
10
31.931124214148351
20
50.150860047136177
10
33.931124214148348
20
50.150860047136177
10
33.931124214148348
20
64.150860047136177
0
LWPOLYLINE
5
209
100
AcDbEntity
8
0
100
AcDbPolyline
90
4
70
1
43
0.0
10
31.931124214148351
20
83.200159999999926
10
31.931124214148351
20
69.200159999999912
10
33.931124214148348
20
69.200159999999912
10
33.931124214148348
20
83.200159999999926
0
LWPOLYLINE
5
210
100
AcDbEntity
8
0
100
AcDbPolyline
90
4
70
1
43
0.0
10
53.931124214148348
20
83.200159999999926
10
53.931124214148348
20
69.200159999999912
10
55.931124214148355
20
69.200159999999912
10
55.931124214148355
20
83.200159999999926
0
ENDSEC
0
SECTION
2
OBJECTS
0
DICTIONARY
5
C
100
AcDbDictionary
3
ACAD_GROUP
350
D
3
ACAD_MLINESTYLE
350
17
0
DICTIONARY
5
D
100
AcDbDictionary
0
DICTIONARY
5
1A
330
C
100
AcDbDictionary
0
DICTIONARY
5
17
100
AcDbDictionary
0
ENDSEC
0
EOF
