0
SECTION
2
HEADER
9
$INSUNITS
70
4
9
$ACADVER
1
AC1014
9
$HANDSEED
5
FFFF
0
ENDSEC
0
SECTION
2
TABLES
0
TABLE
2
VPORT
5
8
100
AcDbSymbolTable
0
ENDTAB
0
TABLE
2
LTYPE
5
5
100
AcDbSymbolTable
0
LTYPE
5
14
100
AcDbSymbolTableRecord
100
AcDbLinetypeTableRecord
2
BYBLOCK
70
0
0
LTYPE
5
15
100
AcDbSymbolTableRecord
100
AcDbLinetypeTableRecord
2
BYLAYER
70
0
0
ENDTAB
0
TABLE
2
LAYER
5
2
100
AcDbSymbolTable
70
2
0
LAYER
5
50
100
AcDbSymbolTableRecord
100
AcDbLayerTableRecord
2
0
70
0
6
CONTINUOUS
0
ENDTAB
0
TABLE
2
STYLE
5
3
100
AcDbSymbolTable
70
1
0
STYLE
5
11
100
AcDbSymbolTableRecord
100
AcDbTextStyleTableRecord
2
STANDARD
70
0
0
ENDTAB
0
TABLE
2
VIEW
5
6
100
AcDbSymbolTable
70
0
0
ENDTAB
0
TABLE
2
UCS
5
7
100
AcDbSymbolTable
70
0
0
ENDTAB
0
TABLE
2
APPID
5
9
100
AcDbSymbolTable
70
2
0
APPID
5
12
100
AcDbSymbolTableRecord
100
AcDbRegAppTableRecord
2
ACAD
70
0
0
ENDTAB
0
TABLE
2
DIMSTYLE
5
A
100
AcDbSymbolTable
70
1
0
ENDTAB
0
TABLE
2
BLOCK_RECORD
5
1
100
AcDbSymbolTable
70
1
0
BLOCK_RECORD
5
1F
100
AcDbSymbolTableRecord
100
AcDbBlockTableRecord
2
*MODEL_SPACE
0
BLOCK_RECORD
5
1B
100
AcDbSymbolTableRecord
100
AcDbBlockTableRecord
2
*PAPER_SPACE
0
ENDTAB
0
ENDSEC
0
SECTION
2
BLOCKS
0
BLOCK
5
20
100
AcDbEntity
100
AcDbBlockBegin
2
*MODEL_SPACE
0
ENDBLK
5
21
100
AcDbEntity
100
AcDbBlockEnd
0
BLOCK
5
1C
100
AcDbEntity
100
AcDbBlockBegin
2
*PAPER_SPACE
0
ENDBLK
5
1D
100
AcDbEntity
100
AcDbBlockEnd
0
ENDSEC
0
SECTION
2
ENTITIES
0
CIRCLE
5
100
100
AcDbEntity
8
0
100
AcDbCircle
10
259.55635078585158
20
38.099799952863819
30
0
40
2
210
0
220
0
230
1
0
LWPOLYLINE
5
101
100
AcDbEntity
8
0
100
AcDbPolyline
90
4
70
1
43
0.0
10
188.26257578585168
20
31.100149952863827
10
202.26212578585171
20
31.100149952863827
10
202.26212578585171
20
45.099449952863779
10
188.26257578585168
20
45.099449952863779
0
LWPOLYLINE
5
102
100
AcDbEntity
8
0
100
AcDbPolyline
90
4
70
1
43
0.0
10
207.31257578585161
20
45.099449952863779
10
207.31257578585161
20
31.100149952863827
10
221.31212578585166
20
31.100149952863827
10
221.31212578585166
20
45.099449952863779
0
LINE
5
103
100
AcDbEntity
8
0
100
AcDbLine
10
252.55657578585169
20
45.099449952863779
30
0
11
266.55612578585169
21
45.099449952863779
31
0
0
CIRCLE
5
104
100
AcDbEntity
8
0
100
AcDbCircle
10
214.31235078585166
20
38.099799952863819
30
0
40
2
210
0
220
0
230
1
0
CIRCLE
5
105
100
AcDbEntity
8
0
100
AcDbCircle
10
285.74980000000011
20
38.099799999999959
30
0
40
2
210
0
220
0
230
1
0
LINE
5
106
100
AcDbEntity
8
0
100
AcDbLine
10
16.812725
20
26.049489999999995
30
0
11
30.812275000000003
21
26.049489999999995
31
0
0
LINE
5
107
100
AcDbEntity
8
0
100
AcDbLine
10
157.3999
20
111.55000000000001
30
0
11
157.3999
21
105.55000000000001
31
0
0
LINE
5
108
100
AcDbEntity
8
0
100
AcDbLine
10
147.3999
20
111.55000000000001
30
0
11
147.3999
21
105.55000000000001
31
0
0
CIRCLE
5
109
100
AcDbEntity
8
0
100
AcDbCircle
10
276.22557499999999
20
95.253191599777864
30
0
40
2
210
0
220
0
230
1
0
LINE
5
110
100
AcDbEntity
8
0
100
AcDbLine
10
-21.431124214148348
20
-0.00051004713617075481
30
0
11
-21.431124214148348
21
95.249489952863826
31
0
0
LINE
5
111
100
AcDbEntity
8
0
100
AcDbLine
10
-21.431124214148348
20
95.249489952863826
30
0
11
-2.3811242141483389
21
95.249489952863826
31
0
0
LINE
5
112
100
AcDbEntity
8
0
100
AcDbLine
10
147.3999
20
111.55000000000001
30
0
11
157.3999
21
111.55000000000001
31
0
0
CIRCLE
5
113
100
AcDbEntity
8
0
100
AcDbCircle
10
23.8125
20
19.049840000000017
30
0
40
2
210
0
220
0
230
1
0
LINE
5
114
100
AcDbEntity
8
0
100
AcDbLine
10
32.550000000000011
20
107.55000000000001
30
0
11
32.550000000000011
21
105.55000000000001
31
0
0
LINE
5
115
100
AcDbEntity
8
0
100
AcDbLine
10
49.862074999999997
20
45.09944999999999
30
0
11
49.862074999999997
21
31.100149999999992
31
0
0
LINE
5
116
100
AcDbEntity
8
0
100
AcDbLine
10
30.812275000000003
20
12.050190000000038
30
0
11
16.812725
21
12.050190000000038
31
0
0
CIRCLE
5
117
100
AcDbEntity
8
0
100
AcDbCircle
10
273.84280000000007
20
57.149900000000002
30
0
40
2
210
0
220
0
230
1
0
CIRCLE
5
118
100
AcDbEntity
8
0
100
AcDbCircle
10
30.955600000000011
20
38.099799999999959
30
0
40
2
210
0
220
0
230
1
0
CIRCLE
5
119
100
AcDbEntity
8
0
100
AcDbCircle
10
42.862299999999998
20
38.099799999999959
30
0
40
2
210
0
220
0
230
1
0
ARC
5
120
100
AcDbEntity
8
0
100
AcDbCircle
10
292.74979999999999
20
102.25000000000001
30
0
40
1.9999999999999929
210
0
220
0
230
1
100
AcDbArc
50
0
51
90
0
LINE
5
121
100
AcDbEntity
8
0
100
AcDbLine
10
30.812275000000003
20
26.049489999999995
30
0
11
30.812275000000003
21
12.050190000000038
31
0
0
LINE
5
122
100
AcDbEntity
8
0
100
AcDbLine
10
23.050000000000011
20
107.55000000000001
30
0
11
32.550000000000011
21
107.55000000000001
31
0
0
LINE
5
123
100
AcDbEntity
8
0
100
AcDbLine
10
278.75002499999999
20
45.09944999999999
30
0
11
292.74957500000016
21
45.09944999999999
31
0
0
LINE
5
124
100
AcDbEntity
8
0
100
AcDbLine
10
292.74957500000016
20
45.09944999999999
30
0
11
292.74957500000016
21
31.100149999999992
31
0
0
LINE
5
125
100
AcDbEntity
8
0
100
AcDbLine
10
23.050000000000011
20
105.55000000000001
30
0
11
23.050000000000011
21
107.55000000000001
31
0
0
LINE
5
126
100
AcDbEntity
8
0
100
AcDbLine
10
149.3999
20
113.91966341654623
30
0
11
155.3999
21
113.91966341654623
31
0
0
LINE
5
127
100
AcDbEntity
8
0
100
AcDbLine
10
23.050000000000011
20
109.95000000000003
30
0
11
32.550000000000011
21
109.95000000000003
31
0
0
LWPOLYLINE
5
128
100
AcDbEntity
8
0
100
AcDbPolyline
90
4
70
1
43
0.0
10
78.43707500000005
20
50.15035000000001
10
78.43707500000005
20
64.149650000000008
10
64.437774999999988
20
64.149650000000008
10
64.437774999999988
20
50.15035000000001
0
LWPOLYLINE
5
129
100
AcDbEntity
8
0
100
AcDbPolyline
90
4
70
1
43
0.0
10
178.73757499999999
20
50.15035000000001
10
192.73757500000002
20
50.15035000000001
10
192.73757500000002
20
64.149650000000008
10
178.73757499999999
20
64.149650000000008
0
LWPOLYLINE
5
130
100
AcDbEntity
8
0
100
AcDbPolyline
90
4
70
1
43
0.0
10
45.387775000000026
20
64.149650000000008
10
45.387775000000026
20
50.15035000000001
10
59.387074999999989
20
50.15035000000001
10
59.387074999999989
20
64.149650000000008
0
LWPOLYLINE
5
131
100
AcDbEntity
8
0
100
AcDbPolyline
90
4
70
1
43
0.0
10
202.55057500000004
20
88.250349999999969
10
216.549575
20
88.250349999999969
10
216.549575
20
102.2496499999999
10
202.55057500000004
20
102.2496499999999
0
LWPOLYLINE
5
132
100
AcDbEntity
8
0
100
AcDbPolyline
90
4
70
1
43
0.0
10
173.68757500000001
20
64.149650000000008
10
159.68757500000004
20
64.149650000000008
10
159.68757500000004
20
50.15035000000001
10
173.68757500000001
20
50.15035000000001
0
LWPOLYLINE
5
133
100
AcDbEntity
8
0
100
AcDbPolyline
90
4
70
1
43
0.0
10
250.17557500000004
20
69.200349999999958
10
264.174575
20
69.200349999999958
10
264.174575
20
83.199649999999949
10
250.17557500000004
20
83.199649999999949
0
LWPOLYLINE
5
134
100
AcDbEntity
8
0
100
AcDbPolyline
90
4
70
1
43
0.0
10
212.07557500000001
20
83.199649999999949
10
212.07557500000001
20
69.200349999999958
10
226.07457500000004
20
69.200349999999958
10
226.07457500000004
20
83.199649999999949
0
LWPOLYLINE
5
135
100
AcDbEntity
8
0
100
AcDbPolyline
90
4
70
1
43
0.0
10
173.97557499999994
20
69.200349999999958
10
187.97457499999993
20
69.200349999999958
10
187.97457499999993
20
83.199649999999949
10
173.97557499999994
20
83.199649999999949
0
LWPOLYLINE
5
136
100
AcDbEntity
8
0
100
AcDbPolyline
90
4
70
1
43
0.0
10
245.12457499999999
20
69.200349999999958
10
245.12457499999999
20
83.199649999999949
10
231.12557500000003
20
83.199649999999949
10
231.12557500000003
20
69.200349999999958
0
LWPOLYLINE
5
137
100
AcDbEntity
8
0
100
AcDbPolyline
90
4
70
1
43
0.0
10
193.02557500000003
20
83.199649999999949
10
193.02557500000003
20
69.200349999999958
10
207.02457500000003
20
69.200349999999958
10
207.02457500000003
20
83.199649999999949
0
LWPOLYLINE
5
138
100
AcDbEntity
8
0
100
AcDbPolyline
90
4
70
1
43
0.0
10
197.787575
20
50.15035000000001
10
211.78757500000003
20
50.15035000000001
10
211.78757500000003
20
64.149650000000008
10
197.787575
20
64.149650000000008
0
LWPOLYLINE
5
139
100
AcDbEntity
8
0
100
AcDbPolyline
90
4
70
1
43
0.0
10
116.537575
20
50.15035000000001
10
116.537575
20
64.149650000000008
10
102.537775
20
64.149650000000008
10
102.537775
20
50.15035000000001
0
LWPOLYLINE
5
140
100
AcDbEntity
8
0
100
AcDbPolyline
90
4
70
1
43
0.0
10
97.487075000000019
20
50.15035000000001
10
97.487075000000019
20
64.149650000000008
10
83.487775000000042
20
64.149650000000008
10
83.487775000000042
20
50.15035000000001
0
LWPOLYLINE
5
141
100
AcDbEntity
8
0
100
AcDbPolyline
90
4
70
1
43
0.0
10
140.63757500000003
20
50.15035000000001
10
154.63757499999991
20
50.15035000000001
10
154.63757499999991
20
64.149650000000008
10
140.63757500000003
20
64.149650000000008
0
LWPOLYLINE
5
142
100
AcDbEntity
8
0
100
AcDbPolyline
90
4
70
1
43
0.0
10
14.431485000000011
20
50.15035000000001
10
33.193475000000035
20
50.15035000000001
10
33.193475000000035
20
64.149650000000008
10
14.431485000000011
20
64.149650000000008
0
LWPOLYLINE
5
143
100
AcDbEntity
8
0
100
AcDbPolyline
90
4
70
1
43
0.0
10
154.92557500000001
20
69.200349999999958
10
168.92457500000003
20
69.200349999999958
10
168.92457500000003
20
83.199649999999949
10
154.92557500000001
20
83.199649999999949
0
LWPOLYLINE
5
144
100
AcDbEntity
8
0
100
AcDbPolyline
90
4
70
1
43
0.0
10
121.587575
20
64.149650000000008
10
121.587575
20
50.15035000000001
10
135.58757499999999
20
50.15035000000001
10
135.58757499999999
20
64.149650000000008
0
LWPOLYLINE
5
145
100
AcDbEntity
8
0
100
AcDbPolyline
90
12
70
1
43
0.0
10
289.77457500000003
20
88.250349999999969
10
289.77457500000003
20
87.280149999999978
10
286.47557499999999
20
87.280149999999978
10
286.47557499999999
20
88.250349999999969
10
265.97457500000007
20
88.250349999999969
10
265.97457500000007
20
87.280149999999978
10
262.67357500000003
20
87.280149999999978
10
262.67357500000003
20
88.250349999999969
10
259.70057500000007
20
88.250349999999969
10
259.70057500000007
20
102.2496499999999
10
292.74957500000016
20
102.2496499999999
10
292.74957500000016
20
88.250349999999969
0
LWPOLYLINE
5
146
100
AcDbEntity
8
0
100
AcDbPolyline
90
4
70
1
43
0.0
10
73.674575000000004
20
69.200349999999958
10
73.674575000000004
20
83.199649999999949
10
59.675274999999999
20
83.199649999999949
10
59.675274999999999
20
69.200349999999958
0
LWPOLYLINE
5
147
100
AcDbEntity
8
0
100
AcDbPolyline
90
4
70
1
43
0.0
10
116.8255749999999
20
83.199649999999949
10
116.8255749999999
20
69.200349999999958
10
130.8245749999999
20
69.200349999999958
10
130.8245749999999
20
83.199649999999949
0
LWPOLYLINE
5
148
100
AcDbEntity
8
0
100
AcDbPolyline
90
4
70
1
43
0.0
10
240.650575
20
88.250349999999969
10
254.649575
20
88.250349999999969
10
254.649575
20
102.2496499999999
10
240.650575
20
102.2496499999999
0
LWPOLYLINE
5
149
100
AcDbEntity
8
0
100
AcDbPolyline
90
4
70
1
43
0.0
10
235.59957499999996
20
102.2496499999999
10
221.60057499999994
20
102.2496499999999
10
221.60057499999994
20
88.250349999999969
10
235.59957499999996
20
88.250349999999969
0
LWPOLYLINE
5
150
100
AcDbEntity
8
0
100
AcDbPolyline
90
4
70
1
43
0.0
10
97.775274999999979
20
83.199649999999949
10
97.775274999999979
20
69.200349999999958
10
111.77457500000001
20
69.200349999999958
10
111.77457500000001
20
83.199649999999949
0
LWPOLYLINE
5
151
100
AcDbEntity
8
0
100
AcDbPolyline
90
4
70
1
43
0.0
10
183.50057500000003
20
102.2496499999999
10
183.50057500000003
20
88.250349999999969
10
197.49957499999999
20
88.250349999999969
10
197.49957499999999
20
102.2496499999999
0
LWPOLYLINE
5
152
100
AcDbEntity
8
0
100
AcDbPolyline
90
4
70
1
43
0.0
10
92.724574999999959
20
69.200349999999958
10
92.724574999999959
20
83.199649999999949
10
78.725275000000025
20
83.199649999999949
10
78.725275000000025
20
69.200349999999958
0
LWPOLYLINE
5
153
100
AcDbEntity
8
0
100
AcDbPolyline
90
4
70
1
43
0.0
10
54.624574999999993
20
83.199649999999949
10
40.625274999999974
20
83.199649999999949
10
40.625274999999974
20
69.200349999999958
10
54.624574999999993
20
69.200349999999958
0
LWPOLYLINE
5
154
100
AcDbEntity
8
0
100
AcDbPolyline
90
4
70
1
43
0.0
10
107.29887578585171
20
88.250349952863814
10
121.29842578585171
20
88.250349952863814
10
121.29842578585171
20
102.24964995286379
10
107.29887578585171
20
102.24964995286379
0
LWPOLYLINE
5
155
100
AcDbEntity
8
0
100
AcDbPolyline
90
4
70
1
43
0.0
10
140.3495749999999
20
88.250349999999969
10
140.3495749999999
20
102.2496499999999
10
126.34857500000001
20
102.2496499999999
10
126.34857500000001
20
88.250349999999969
0
LWPOLYLINE
5
156
100
AcDbEntity
8
0
100
AcDbPolyline
90
4
70
1
43
0.0
10
83.199574999999996
20
102.2496499999999
10
69.200275000000033
20
102.2496499999999
10
69.200275000000033
20
88.250349999999969
10
83.199574999999996
20
88.250349999999969
0
LWPOLYLINE
5
157
100
AcDbEntity
8
0
100
AcDbPolyline
90
4
70
1
43
0.0
10
178.44957500000004
20
88.250349999999969
10
178.44957500000004
20
102.2496499999999
10
164.4505749999999
20
102.2496499999999
10
164.4505749999999
20
88.250349999999969
0
LWPOLYLINE
5
158
100
AcDbEntity
8
0
100
AcDbPolyline
90
4
70
1
43
0.0
10
159.399575
20
102.2496499999999
10
145.400575
20
102.2496499999999
10
145.400575
20
88.250349999999969
10
159.399575
20
88.250349999999969
0
LWPOLYLINE
5
159
100
AcDbEntity
8
0
100
AcDbPolyline
90
4
70
1
43
0.0
10
16.812735000000028
20
83.199649999999949
10
16.812735000000028
20
69.200349999999958
10
30.812275000000003
20
69.200349999999958
10
30.812275000000003
20
83.199649999999949
0
LWPOLYLINE
5
160
100
AcDbEntity
8
0
100
AcDbPolyline
90
4
70
1
43
0.0
10
149.87457499999999
20
83.199649999999949
10
135.875575
20
83.199649999999949
10
135.875575
20
69.200349999999958
10
149.87457499999999
20
69.200349999999958
0
LWPOLYLINE
5
161
100
AcDbEntity
8
0
100
AcDbPolyline
90
4
70
1
43
0.0
10
45.099825785851692
20
88.250349952863814
10
45.099825785851692
20
102.24964995286379
10
31.100275785851696
20
102.24964995286379
10
31.100275785851696
20
88.250349952863814
0
LWPOLYLINE
5
162
100
AcDbEntity
8
0
100
AcDbPolyline
90
4
70
1
43
0.0
10
126.34857578585171
20
88.250349952863814
10
140.34812578585158
20
88.250349952863814
10
140.34812578585158
20
102.24964995286379
10
126.34857578585171
20
102.24964995286379
0
LWPOLYLINE
5
163
100
AcDbEntity
8
0
100
AcDbPolyline
90
4
70
1
43
0.0
10
88.250275785851727
20
102.24964995286379
10
88.250275785851727
20
88.250349952863814
10
102.24982578585171
20
88.250349952863814
10
102.24982578585171
20
102.24964995286379
0
LWPOLYLINE
5
164
100
AcDbEntity
8
0
100
AcDbPolyline
90
4
70
1
43
0.0
10
88.250274999999988
20
102.2496499999999
10
88.250274999999988
20
88.250349999999969
10
102.24957500000001
20
88.250349999999969
10
102.24957500000001
20
102.2496499999999
0
LWPOLYLINE
5
165
100
AcDbEntity
8
0
100
AcDbPolyline
90
4
70
1
43
0.0
10
45.099575000000016
20
102.2496499999999
10
31.100275000000011
20
102.2496499999999
10
31.100275000000011
20
88.250349999999969
10
45.099575000000016
20
88.250349999999969
0
LWPOLYLINE
5
166
100
AcDbEntity
8
0
100
AcDbPolyline
90
4
70
1
43
0.0
10
26.049775000000011
20
102.2496499999999
10
12.05022500000001
20
102.2496499999999
10
12.05022500000001
20
88.250349999999969
10
26.049775000000011
20
88.250349999999969
0
LWPOLYLINE
5
167
100
AcDbEntity
8
0
100
AcDbPolyline
90
4
70
1
43
0.0
10
50.150275785851704
20
88.250349952863814
10
64.149825785851704
20
88.250349952863814
10
64.149825785851704
20
102.24964995286379
10
50.150275785851704
20
102.24964995286379
0
LWPOLYLINE
5
168
100
AcDbEntity
8
0
100
AcDbPolyline
90
4
70
1
43
0.0
10
111.7748257858517
20
69.200349952863803
10
111.7748257858517
20
83.199649952863751
10
97.775275785851733
20
83.199649952863751
10
97.775275785851733
20
69.200349952863803
0
LWPOLYLINE
5
169
100
AcDbEntity
8
0
100
AcDbPolyline
90
4
70
1
43
0.0
10
107.29887499999991
20
102.2496499999999
10
107.29887499999991
20
88.250349999999969
10
121.29957500000002
20
88.250349999999969
10
121.29957500000002
20
102.2496499999999
0
LWPOLYLINE
5
170
100
AcDbEntity
8
0
100
AcDbPolyline
90
4
70
1
43
0.0
10
145.40057578585169
20
88.250349952863814
10
159.40012578585169
20
88.250349952863814
10
159.40012578585169
20
102.24964995286379
10
145.40057578585169
20
102.24964995286379
0
CIRCLE
5
171
100
AcDbEntity
8
0
100
AcDbCircle
10
57.150050785851711
20
95.249999952863789
30
0
40
2
210
0
220
0
230
1
0
LWPOLYLINE
5
172
100
AcDbEntity
8
0
100
AcDbPolyline
90
4
70
1
43
0.0
10
64.149575000000027
20
88.250349999999969
10
64.149575000000027
20
102.2496499999999
10
50.150275000000022
20
102.2496499999999
10
50.150275000000022
20
88.250349999999969
0
CIRCLE
5
173
100
AcDbEntity
8
0
100
AcDbCircle
10
38.100050785851693
20
95.249999952863789
30
0
40
2
210
0
220
0
230
1
0
LWPOLYLINE
5
174
100
AcDbEntity
8
0
100
AcDbPolyline
90
4
70
1
43
0.0
10
69.200275785851659
20
88.250349952863814
10
83.199825785851672
20
88.250349952863814
10
83.199825785851672
20
102.24964995286379
10
69.200275785851659
20
102.24964995286379
0
CIRCLE
5
175
100
AcDbEntity
8
0
100
AcDbCircle
10
76.200050785851658
20
95.249999952863789
30
0
40
2
210
0
220
0
230
1
0
CIRCLE
5
176
100
AcDbEntity
8
0
100
AcDbCircle
10
19.050000000000011
20
95.25
30
0
40
2
210
0
220
0
230
1
0
CIRCLE
5
177
100
AcDbEntity
8
0
100
AcDbCircle
10
133.34835078585158
20
95.249999952863789
30
0
40
2
210
0
220
0
230
1
0
LINE
5
178
100
AcDbEntity
8
0
100
AcDbLine
10
292.74957500000016
20
102.2496499999999
30
0
11
292.74957500000016
21
88.250349999999969
31
0
0
CIRCLE
5
179
100
AcDbEntity
8
0
100
AcDbCircle
10
114.29865078585172
20
95.249999952863789
30
0
40
2
210
0
220
0
230
1
0
CIRCLE
5
180
100
AcDbEntity
8
0
100
AcDbCircle
10
95.250050785851599
20
95.249999952863789
30
0
40
2
210
0
220
0
230
1
0
CIRCLE
5
181
100
AcDbEntity
8
0
100
AcDbCircle
10
23.812510785851661
20
76.19999995286382
30
0
40
2
210
0
220
0
230
1
0
CIRCLE
5
182
100
AcDbEntity
8
0
100
AcDbCircle
10
66.675050785851681
20
76.19999995286382
30
0
40
2
210
0
220
0
230
1
0
CIRCLE
5
183
100
AcDbEntity
8
0
100
AcDbCircle
10
228.6003507858517
20
95.249999952863789
30
0
40
2
210
0
220
0
230
1
0
LWPOLYLINE
5
184
100
AcDbEntity
8
0
100
AcDbPolyline
90
4
70
1
43
0.0
10
168.92512578585169
20
69.200349952863803
10
168.92512578585169
20
83.199649952863751
10
154.92557578585172
20
83.199649952863751
10
154.92557578585172
20
69.200349952863803
0
LWPOLYLINE
5
185
100
AcDbEntity
8
0
100
AcDbPolyline
90
4
70
1
43
0.0
10
40.625275785851677
20
83.199649952863751
10
40.625275785851677
20
69.200349952863803
10
54.624825785851669
20
69.200349952863803
10
54.624825785851669
20
83.199649952863751
0
LWPOLYLINE
5
186
100
AcDbEntity
8
0
100
AcDbPolyline
90
4
70
1
43
0.0
10
149.87512578585159
20
83.199649952863751
10
135.87557578585159
20
83.199649952863751
10
135.87557578585159
20
69.200349952863803
10
149.87512578585159
20
69.200349952863803
0
LWPOLYLINE
5
187
100
AcDbEntity
8
0
100
AcDbPolyline
90
4
70
1
43
0.0
10
183.50057578585162
20
102.24964995286379
10
183.50057578585162
20
88.250349952863814
10
197.50012578585159
20
88.250349952863814
10
197.50012578585159
20
102.24964995286379
0
CIRCLE
5
188
100
AcDbEntity
8
0
100
AcDbCircle
10
104.7750507858516
20
76.19999995286382
30
0
40
2
210
0
220
0
230
1
0
LWPOLYLINE
5
189
100
AcDbEntity
8
0
100
AcDbPolyline
90
4
70
1
43
0.0
10
178.45012578585167
20
102.24964995286379
10
164.4505757858517
20
102.24964995286379
10
164.4505757858517
20
88.250349952863814
10
178.45012578585167
20
88.250349952863814
0
LWPOLYLINE
5
190
100
AcDbEntity
8
0
100
AcDbPolyline
90
4
70
1
43
0.0
10
254.6501257858516
20
88.250349952863814
10
254.6501257858516
20
102.24964995286379
10
240.65057578585163
20
102.24964995286379
10
240.65057578585163
20
88.250349952863814
0
CIRCLE
5
191
100
AcDbEntity
8
0
100
AcDbCircle
10
171.4503507858517
20
95.249999952863789
30
0
40
2
210
0
220
0
230
1
0
CIRCLE
5
192
100
AcDbEntity
8
0
100
AcDbCircle
10
85.72505078585165
20
76.199999905727623
30
0
40
2
210
0
220
0
230
1
0
LWPOLYLINE
5
193
100
AcDbEntity
8
0
100
AcDbPolyline
90
4
70
1
43
0.0
10
116.82557578585173
20
69.200349952863803
10
130.8251257858517
20
69.200349952863803
10
130.8251257858517
20
83.199649952863751
10
116.82557578585173
20
83.199649952863751
0
CIRCLE
5
194
100
AcDbEntity
8
0
100
AcDbCircle
10
142.87535078585159
20
76.19999995286382
30
0
40
2
210
0
220
0
230
1
0
LWPOLYLINE
5
195
100
AcDbEntity
8
0
100
AcDbPolyline
90
4
70
1
43
0.0
10
92.724825785851635
20
83.199649905727597
10
78.725275785851622
20
83.199649905727597
10
78.725275785851622
20
69.200349905727649
10
92.724825785851635
20
69.200349905727649
0
LWPOLYLINE
5
196
100
AcDbEntity
8
0
100
AcDbPolyline
90
4
70
1
43
0.0
10
59.675275785851689
20
69.200349952863803
10
73.674825785851695
20
69.200349952863803
10
73.674825785851695
20
83.199649952863751
10
59.675275785851689
20
83.199649952863751
0
LWPOLYLINE
5
197
100
AcDbEntity
8
0
100
AcDbPolyline
90
4
70
1
43
0.0
10
16.812735785851711
20
83.199649952863751
10
16.812735785851711
20
69.200349952863803
10
30.812285785851721
20
69.200349952863803
10
30.812285785851721
20
83.199649952863751
0
LWPOLYLINE
5
198
100
AcDbEntity
8
0
100
AcDbPolyline
90
4
70
1
43
0.0
10
202.55057578585163
20
88.250349952863814
10
216.55012578585161
20
88.250349952863814
10
216.55012578585161
20
102.24964995286379
10
202.55057578585163
20
102.24964995286379
0
CIRCLE
5
199
100
AcDbEntity
8
0
100
AcDbCircle
10
190.50035078585159
20
95.249999952863789
30
0
40
2
210
0
220
0
230
1
0
CIRCLE
5
200
100
AcDbEntity
8
0
100
AcDbCircle
10
209.55035078585161
20
95.249999952863789
30
0
40
2
210
0
220
0
230
1
0
CIRCLE
5
201
100
AcDbEntity
8
0
100
AcDbCircle
10
123.82535078585161
20
76.19999995286382
30
0
40
2
210
0
220
0
230
1
0
CIRCLE
5
202
100
AcDbEntity
8
0
100
AcDbCircle
10
247.6503507858516
20
95.249999952863789
30
0
40
2
210
0
220
0
230
1
0
LWPOLYLINE
5
203
100
AcDbEntity
8
0
100
AcDbPolyline
90
4
70
1
43
0.0
10
235.6001257858517
20
88.250349952863814
10
235.6001257858517
20
102.24964995286379
10
221.60057578585167
20
102.24964995286379
10
221.60057578585167
20
88.250349952863814
0
CIRCLE
5
204
100
AcDbEntity
8
0
100
AcDbCircle
10
152.40035078585169
20
95.249999952863789
30
0
40
2
210
0
220
0
230
1
0
CIRCLE
5
205
100
AcDbEntity
8
0
100
AcDbCircle
10
47.62505078585167
20
76.19999995286382
30
0
40
2
210
0
220
0
230
1
0
LWPOLYLINE
5
206
100
AcDbEntity
8
0
100
AcDbPolyline
90
4
70
1
43
0.0
10
45.387775785851659
20
64.149649952863797
10
45.387775785851659
20
50.150349952863849
10
59.387325785851665
20
50.150349952863849
10
59.387325785851665
20
64.149649952863797
0
CIRCLE
5
207
100
AcDbEntity
8
0
100
AcDbCircle
10
109.53755078585161
20
57.149999952863823
30
0
40
2
210
0
220
0
230
1
0
LWPOLYLINE
5
208
100
AcDbEntity
8
0
100
AcDbPolyline
90
4
70
1
43
0.0
10
173.68712578585161
20
64.149649952863797
10
159.68757578585161
20
64.149649952863797
10
159.68757578585161
20
50.150349952863849
10
173.68712578585161
20
50.150349952863849
0
CIRCLE
5
209
100
AcDbEntity
8
0
100
AcDbCircle
10
180.9753507858515
20
76.19999995286382
30
0
40
2
210
0
220
0
230
1
0
LWPOLYLINE
5
210
100
AcDbEntity
8
0
100
AcDbPolyline
90
4
70
1
43
0.0
10
226.0751257858517
20
83.199649952863751
10
212.07557578585167
20
83.199649952863751
10
212.07557578585167
20
69.200349952863803
10
226.0751257858517
20
69.200349952863803
0
LINE
5
211
100
AcDbEntity
8
0
100
AcDbLine
10
14.43148578585169
20
64.149649952863797
30
0
11
28.431035785851698
21
64.149649952863797
31
0
0
LWPOLYLINE
5
212
100
AcDbEntity
8
0
100
AcDbPolyline
90
4
70
1
43
0.0
10
135.58712578585158
20
64.149649952863797
10
121.58757578585173
20
64.149649952863797
10
121.58757578585173
20
50.150349952863849
10
135.58712578585158
20
50.150349952863849
0
LWPOLYLINE
5
213
100
AcDbEntity
8
0
100
AcDbPolyline
90
4
70
1
43
0.0
10
78.437325785851726
20
64.149649952863797
10
64.437775785851727
20
64.149649952863797
10
64.437775785851727
20
50.150349952863849
10
78.437325785851726
20
50.150349952863849
0
CIRCLE
5
214
100
AcDbEntity
8
0
100
AcDbCircle
10
147.63735078585159
20
57.149999952863823
30
0
40
2
210
0
220
0
230
1
0
CIRCLE
5
215
100
AcDbEntity
8
0
100
AcDbCircle
10
21.431260785851691
20
57.149999952863823
30
0
40
2
210
0
220
0
230
1
0
LWPOLYLINE
5
216
100
AcDbEntity
8
0
100
AcDbPolyline
90
4
70
1
43
0.0
10
250.17557578585161
20
69.200349952863803
10
264.17512578585161
20
69.200349952863803
10
264.17512578585161
20
83.199649952863751
10
250.17557578585161
20
83.199649952863751
0
LWPOLYLINE
5
217
100
AcDbEntity
8
0
100
AcDbPolyline
90
4
70
1
43
0.0
10
207.0251257858516
20
83.199649952863751
10
193.02557578585163
20
83.199649952863751
10
193.02557578585163
20
69.200349952863803
10
207.0251257858516
20
69.200349952863803
0
LWPOLYLINE
5
218
100
AcDbEntity
8
0
100
AcDbPolyline
90
4
70
1
43
0.0
10
102.53777578585172
20
50.150349952863849
10
116.53732578585171
20
50.150349952863849
10
116.53732578585171
20
64.149649952863797
10
102.53777578585172
20
64.149649952863797
0
CIRCLE
5
219
100
AcDbEntity
8
0
100
AcDbCircle
10
90.48755078585171
20
57.149999952863823
30
0
40
2
210
0
220
0
230
1
0
LWPOLYLINE
5
220
100
AcDbEntity
8
0
100
AcDbPolyline
90
4
70
1
43
0.0
10
231.12557578585159
20
69.200349952863803
10
245.12512578585159
20
69.200349952863803
10
245.12512578585159
20
83.199649952863751
10
231.12557578585159
20
83.199649952863751
0
LWPOLYLINE
5
221
100
AcDbEntity
8
0
100
AcDbPolyline
90
4
70
1
43
0.0
10
97.487325785851695
20
64.149649952863797
10
83.487775785851696
20
64.149649952863797
10
83.487775785851696
20
50.150349952863849
10
97.487325785851695
20
50.150349952863849
0
LWPOLYLINE
5
222
100
AcDbEntity
8
0
100
AcDbPolyline
90
4
70
1
43
0.0
10
187.97512578585167
20
83.199649952863751
10
173.9755757858515
20
83.199649952863751
10
173.9755757858515
20
69.200349952863803
10
187.97512578585167
20
69.200349952863803
0
CIRCLE
5
223
100
AcDbEntity
8
0
100
AcDbCircle
10
257.17535078585161
20
76.19999995286382
30
0
40
2
210
0
220
0
230
1
0
LWPOLYLINE
5
224
100
AcDbEntity
8
0
100
AcDbPolyline
90
4
70
1
43
0.0
10
140.6375757858516
20
64.149649952863797
10
140.6375757858516
20
50.150349952863849
10
154.63712578585168
20
50.150349952863849
10
154.63712578585168
20
64.149649952863797
0
CIRCLE
5
225
100
AcDbEntity
8
0
100
AcDbCircle
10
219.0753507858517
20
76.19999995286382
30
0
40
2
210
0
220
0
230
1
0
CIRCLE
5
226
100
AcDbEntity
8
0
100
AcDbCircle
10
161.92535078585163
20
76.19999995286382
30
0
40
2
210
0
220
0
230
1
0
CIRCLE
5
227
100
AcDbEntity
8
0
100
AcDbCircle
10
128.58735078585158
20
57.149999952863823
30
0
40
2
210
0
220
0
230
1
0
CIRCLE
5
228
100
AcDbEntity
8
0
100
AcDbCircle
10
200.02535078585163
20
76.19999995286382
30
0
40
2
210
0
220
0
230
1
0
CIRCLE
5
229
100
AcDbEntity
8
0
100
AcDbCircle
10
238.12535078585171
20
76.19999995286382
30
0
40
2
210
0
220
0
230
1
0
CIRCLE
5
230
100
AcDbEntity
8
0
100
AcDbCircle
10
52.387550785851658
20
57.149999952863823
30
0
40
2
210
0
220
0
230
1
0
LWPOLYLINE
5
231
100
AcDbEntity
8
0
100
AcDbPolyline
90
4
70
1
43
0.0
10
150.16257578585169
20
31.100149952863827
10
164.16212578585171
20
31.100149952863827
10
164.16212578585171
20
45.099449952863779
10
150.16257578585169
20
45.099449952863779
0
LWPOLYLINE
5
232
100
AcDbEntity
8
0
100
AcDbPolyline
90
4
70
1
43
0.0
10
235.88757578585171
20
64.149649952863797
10
235.88757578585171
20
50.150349952863849
10
249.88712578585168
20
50.150349952863849
10
249.88712578585168
20
64.149649952863797
0
LINE
5
233
100
AcDbEntity
8
0
100
AcDbLine
10
28.431035785851698
20
50.150349952863849
30
0
11
14.43148578585169
21
50.150349952863849
31
0
0
LWPOLYLINE
5
234
100
AcDbEntity
8
0
100
AcDbPolyline
90
4
70
1
43
0.0
10
211.78712578585166
20
64.149649952863797
10
197.78757578585169
20
64.149649952863797
10
197.78757578585169
20
50.150349952863849
10
211.78712578585166
20
50.150349952863849
0
LWPOLYLINE
5
235
100
AcDbEntity
8
0
100
AcDbPolyline
90
4
70
1
43
0.0
10
178.73757578585167
20
50.150349952863849
10
192.73712578585167
20
50.150349952863849
10
192.73712578585167
20
64.149649952863797
10
178.73757578585167
20
64.149649952863797
0
CIRCLE
5
236
100
AcDbEntity
8
0
100
AcDbCircle
10
71.437550785851712
20
57.149999952863823
30
0
40
2
210
0
220
0
230
1
0
LINE
5
237
100
AcDbEntity
8
0
100
AcDbLine
10
254.93757578585166
20
50.150349952863849
30
0
11
254.93757578585166
21
64.149649952863797
31
0
0
LWPOLYLINE
5
238
100
AcDbEntity
8
0
100
AcDbPolyline
90
4
70
1
43
0.0
10
68.912325785851635
20
45.099449952863779
10
54.912775785851693
20
45.099449952863779
10
54.912775785851693
20
31.100149952863827
10
68.912325785851635
20
31.100149952863827
0
LWPOLYLINE
5
239
100
AcDbEntity
8
0
100
AcDbPolyline
90
4
70
1
43
0.0
10
145.11212578585167
20
31.100149952863827
10
145.11212578585167
20
45.099449952863779
10
131.1125757858517
20
45.099449952863779
10
131.1125757858517
20
31.100149952863827
0
CIRCLE
5
240
100
AcDbEntity
8
0
100
AcDbCircle
10
176.21235078585158
20
38.099799952863819
30
0
40
2
210
0
220
0
230
1
0
CIRCLE
5
241
100
AcDbEntity
8
0
100
AcDbCircle
10
61.91255078585165
20
38.099799952863819
30
0
40
2
210
0
220
0
230
1
0
CIRCLE
5
242
100
AcDbEntity
8
0
100
AcDbCircle
10
100.01255078585152
20
38.099799952863819
30
0
40
2
210
0
220
0
230
1
0
LWPOLYLINE
5
243
100
AcDbEntity
8
0
100
AcDbPolyline
90
4
70
1
43
0.0
10
126.06212578585159
20
45.099449952863779
10
112.06257578585159
20
45.099449952863779
10
112.06257578585159
20
31.100149952863827
10
126.06212578585159
20
31.100149952863827
0
CIRCLE
5
244
100
AcDbEntity
8
0
100
AcDbCircle
10
138.11235078585159
20
38.099799952863819
30
0
40
2
210
0
220
0
230
1
0
LWPOLYLINE
5
245
100
AcDbEntity
8
0
100
AcDbPolyline
90
4
70
1
43
0.0
10
216.83757578585158
20
64.149649952863797
10
216.83757578585158
20
50.150349952863849
10
230.83712578585161
20
50.150349952863849
10
230.83712578585161
20
64.149649952863797
0
CIRCLE
5
246
100
AcDbEntity
8
0
100
AcDbCircle
10
242.88735078585162
20
57.149999952863823
30
0
40
2
210
0
220
0
230
1
0
CIRCLE
5
247
100
AcDbEntity
8
0
100
AcDbCircle
10
80.962550785851718
20
38.099799952863819
30
0
40
2
210
0
220
0
230
1
0
LWPOLYLINE
5
248
100
AcDbEntity
8
0
100
AcDbPolyline
90
4
70
1
43
0.0
10
169.21257578585158
20
45.099449952863779
10
169.21257578585158
20
31.100149952863827
10
183.21212578585158
20
31.100149952863827
10
183.21212578585158
20
45.099449952863779
0
LWPOLYLINE
5
249
100
AcDbEntity
8
0
100
AcDbPolyline
90
4
70
1
43
0.0
10
93.012775785851645
20
31.100149952863827
10
107.0123257858516
20
31.100149952863827
10
107.0123257858516
20
45.099449952863779
10
93.012775785851645
20
45.099449952863779
0
LWPOLYLINE
5
250
100
AcDbEntity
8
0
100
AcDbPolyline
90
4
70
1
43
0.0
10
73.962775785851704
20
31.100149952863827
10
87.962325785851704
20
31.100149952863827
10
87.962325785851704
20
45.099449952863779
10
73.962775785851704
20
45.099449952863779
0
CIRCLE
5
251
100
AcDbEntity
8
0
100
AcDbCircle
10
261.93735078585166
20
57.149999952863823
30
0
40
2
210
0
220
0
230
1
0
CIRCLE
5
252
100
AcDbEntity
8
0
100
AcDbCircle
10
185.73735078585159
20
57.149999952863823
30
0
40
2
210
0
220
0
230
1
0
LINE
5
253
100
AcDbEntity
8
0
100
AcDbLine
10
14.43148578585169
20
50.150349952863849
30
0
11
14.43148578585169
21
64.149649952863797
31
0
0
CIRCLE
5
254
100
AcDbEntity
8
0
100
AcDbCircle
10
223.83735078585161
20
57.149999952863823
30
0
40
2
210
0
220
0
230
1
0
CIRCLE
5
255
100
AcDbEntity
8
0
100
AcDbCircle
10
204.78735078585169
20
57.149999952863823
30
0
40
2
210
0
220
0
230
1
0
LINE
5
256
100
AcDbEntity
8
0
100
AcDbLine
10
14.43148578585169
20
45.099449952863779
30
0
11
28.431035785851698
21
45.099449952863779
31
0
0
LINE
5
257
100
AcDbEntity
8
0
100
AcDbLine
10
14.43148578585169
20
31.100149952863827
30
0
11
14.43148578585169
21
45.099449952863779
31
0
0
CIRCLE
5
258
100
AcDbEntity
8
0
100
AcDbCircle
10
119.06235078585161
20
38.099799952863819
30
0
40
2
210
0
220
0
230
1
0
LWPOLYLINE
5
259
100
AcDbEntity
8
0
100
AcDbPolyline
90
4
70
1
43
0.0
10
240.36212578585167
20
45.099449952863779
10
226.3625757858517
20
45.099449952863779
10
226.3625757858517
20
31.100149952863827
10
240.36212578585167
20
31.100149952863827
0
CIRCLE
5
260
100
AcDbEntity
8
0
100
AcDbCircle
10
195.26235078585159
20
38.099799952863819
30
0
40
2
210
0
220
0
230
1
0
CIRCLE
5
261
100
AcDbEntity
8
0
100
AcDbCircle
10
21.431260785851691
20
38.099799952863819
30
0
40
2
210
0
220
0
230
1
0
CIRCLE
5
262
100
AcDbEntity
8
0
100
AcDbCircle
10
166.68735078585149
20
57.149999952863823
30
0
40
2
210
0
220
0
230
1
0
CIRCLE
5
263
100
AcDbEntity
8
0
100
AcDbCircle
10
280.98735078585167
20
76.19999995286382
30
0
40
2
210
0
220
0
230
1
0
LINE
5
264
100
AcDbEntity
8
0
100
AcDbLine
10
262.0810249999999
20
45.09944999999999
30
0
11
276.0805749999999
21
45.09944999999999
31
0
0
LINE
5
265
100
AcDbEntity
8
0
100
AcDbLine
10
292.74957500000016
20
102.2496499999999
30
0
11
292.74957500000016
21
88.250349999999969
31
0
0
LINE
5
266
100
AcDbEntity
8
0
100
AcDbLine
10
273.98757578585167
20
83.199649952863751
30
0
11
287.98712578585167
21
83.199649952863751
31
0
0
CIRCLE
5
267
100
AcDbEntity
8
0
100
AcDbCircle
10
266.7003507858517
20
95.249999952863789
30
0
40
2
210
0
220
0
230
1
0
LINE
5
268
100
AcDbEntity
8
0
100
AcDbLine
10
259.7005757858517
20
88.250349952863814
30
0
11
259.7005757858517
21
102.24964995286379
31
0
0
CIRCLE
5
269
100
AcDbEntity
8
0
100
AcDbCircle
10
157.16235078585152
20
38.099799952863819
30
0
40
2
210
0
220
0
230
1
0
CIRCLE
5
270
100
AcDbEntity
8
0
100
AcDbCircle
10
269.08080000000001
20
38.099799999999959
30
0
40
2
210
0
220
0
230
1
0
LWPOLYLINE
5
271
100
AcDbEntity
8
0
100
AcDbPolyline
90
32
70
1
43
0.0
10
290.36857500000002
20
59.67534999999998
10
290.36857500000002
20
73.674649999999986
10
287.98757499999999
20
73.674649999999986
10
287.98757499999999
20
75.200049999999976
10
288.89757500000002
20
75.200049999999976
10
288.89757500000002
20
81.94974999999998
10
287.98757499999999
20
81.94974999999998
10
287.98757499999999
20
83.199649999999949
10
273.98757499999999
20
83.199649999999949
10
273.98757499999999
20
69.200349999999958
10
276.36757499999999
20
69.200349999999958
10
276.36757499999999
20
64.149650000000008
10
254.93757500000001
20
64.149650000000008
10
254.93757500000001
20
50.15035000000001
10
260.29257499999994
20
50.15035000000001
10
260.29257499999994
20
49.180150000000033
10
263.59157499999992
20
49.180150000000033
10
263.59157499999992
20
50.15035000000001
10
280.8435750000001
20
50.15035000000001
10
280.8435750000001
20
51.400249999999978
10
282.3675750000001
20
51.400249999999978
10
282.3675750000001
20
50.380350000000021
10
284.09257500000012
20
50.380350000000021
10
284.09257500000012
20
49.180150000000033
10
287.39357500000011
20
49.180150000000033
10
287.39357500000011
20
50.380350000000021
10
289.11857499999991
20
50.380350000000021
10
289.11857499999991
20
56.650249999999971
10
289.94257499999998
20
56.650249999999971
10
289.94257499999998
20
59.449149999999982
10
289.11857499999991
20
59.449149999999982
10
289.11857499999991
20
59.67534999999998
0
CIRCLE
5
272
100
AcDbEntity
8
0
100
AcDbCircle
10
285.74980000000011
20
95.25
30
0
40
2
210
0
220
0
230
1
0
LINE
5
273
100
AcDbEntity
8
0
100
AcDbLine
10
19.193924999999982
20
64.149649999999951
30
0
11
33.193475000000035
21
64.149650000000008
31
0
0
LINE
5
274
100
AcDbEntity
8
0
100
AcDbLine
10
33.193475000000035
20
64.149650000000008
30
0
11
33.193475000000035
21
50.15035000000001
31
0
0
LINE
5
275
100
AcDbEntity
8
0
100
AcDbLine
10
33.193475000000035
20
50.15035000000001
30
0
11
19.193924999999982
21
50.15035000000001
31
0
0
LINE
5
276
100
AcDbEntity
8
0
100
AcDbLine
10
252.55657578585169
20
31.100149952863827
30
0
11
252.55657578585169
21
45.099449952863779
31
0
0
LINE
5
277
100
AcDbEntity
8
0
100
AcDbLine
10
276.0805749999999
20
31.100149999999992
30
0
11
262.0810249999999
21
31.100149999999992
31
0
0
CIRCLE
5
278
100
AcDbEntity
8
0
100
AcDbCircle
10
26.193700000000035
20
57.149999999999991
30
0
40
2
210
0
220
0
230
1
0
LINE
5
279
100
AcDbEntity
8
0
100
AcDbLine
10
35.862524999999998
20
45.09944999999999
30
0
11
49.862074999999997
21
45.09944999999999
31
0
0
CIRCLE
5
280
100
AcDbEntity
8
0
100
AcDbCircle
10
233.36235078585167
20
38.099799952863819
30
0
40
2
210
0
220
0
230
1
0
LINE
5
281
100
AcDbEntity
8
0
100
AcDbLine
10
273.98757578585167
20
69.200349952863803
30
0
11
273.98757578585167
21
83.199649952863751
31
0
0
CIRCLE
5
282
100
AcDbEntity
8
0
100
AcDbCircle
10
283.36880000000002
20
66.675000000000011
30
0
40
2
210
0
220
0
230
1
0
LINE
5
283
100
AcDbEntity
8
0
100
AcDbLine
10
44.505775000000028
20
31.100149999999992
30
0
11
49.862074999999997
21
31.100149999999992
31
0
0
LINE
5
284
100
AcDbEntity
8
0
100
AcDbLine
10
14.431485000000011
20
31.100149999999992
30
0
11
17.406665000000029
21
31.100149999999992
31
0
0
LINE
5
285
100
AcDbEntity
8
0
100
AcDbLine
10
279.33057500000007
20
30.130049999999979
30
0
11
282.63057500000002
21
30.130049999999979
31
0
0
LWPOLYLINE
5
286
100
AcDbEntity
8
0
100
AcDbPolyline
90
9
70
1
43
0.0
10
276.0805749999999
20
45.099550000000022
10
276.0805749999999
20
40.399149999999963
10
276.0805749999999
20
31.100149999999992
10
258.83057499999995
20
31.100149999999992
10
258.83057499999995
20
30.130049999999979
10
255.531575
20
30.130049999999979
10
255.531575
20
31.100149999999992
10
252.55657500000009
20
31.100149999999992
10
252.55657500000009
20
45.099550000000022
0
LINE
5
287
100
AcDbEntity
8
0
100
AcDbLine
10
279.33057500000007
20
31.100149999999992
30
0
11
279.33057500000007
21
30.130049999999979
31
0
0
LINE
5
288
100
AcDbEntity
8
0
100
AcDbLine
10
14.431485000000011
20
45.099550000000022
30
0
11
14.431485000000011
21
31.100149999999992
31
0
0
LINE
5
289
100
AcDbEntity
8
0
100
AcDbLine
10
41.205375000000004
20
31.100149999999992
30
0
11
41.205375000000004
21
30.130049999999979
31
0
0
LINE
5
290
100
AcDbEntity
8
0
100
AcDbLine
10
49.862074999999997
20
31.100149999999992
30
0
11
49.862074999999997
21
45.099550000000022
31
0
0
LWPOLYLINE
5
291
100
AcDbEntity
8
0
100
AcDbPolyline
90
4
70
1
43
0.0
10
240.36257500000002
20
45.099550000000022
10
226.36257499999999
20
45.099550000000022
10
226.36257499999999
20
31.100149999999992
10
240.36257500000002
20
31.100149999999992
0
LWPOLYLINE
5
292
100
AcDbEntity
8
0
100
AcDbPolyline
90
4
70
1
43
0.0
10
169.21257499999999
20
45.099550000000022
10
169.21257499999999
20
31.100149999999992
10
183.21257499999999
20
31.100149999999992
10
183.21257499999999
20
45.099550000000022
0
LINE
5
293
100
AcDbEntity
8
0
100
AcDbLine
10
282.63057500000002
20
31.100149999999992
30
0
11
292.74957500000016
21
31.100149999999992
31
0
0
LWPOLYLINE
5
294
100
AcDbEntity
8
0
100
AcDbPolyline
90
4
70
1
43
0.0
10
188.26257499999994
20
45.099550000000022
10
188.26257499999994
20
31.100149999999992
10
202.26257500000003
20
31.100149999999992
10
202.26257500000003
20
45.099550000000022
0
LINE
5
295
100
AcDbEntity
8
0
100
AcDbLine
10
20.705675000000042
20
30.130049999999979
30
0
11
20.705675000000042
21
31.100149999999992
31
0
0
LINE
5
296
100
AcDbEntity
8
0
100
AcDbLine
10
278.75057500000003
20
31.100149999999992
30
0
11
279.33057500000007
21
31.100149999999992
31
0
0
LINE
5
297
100
AcDbEntity
8
0
100
AcDbLine
10
20.705675000000042
20
31.100149999999992
30
0
11
41.205375000000004
21
31.100149999999992
31
0
0
LWPOLYLINE
5
298
100
AcDbEntity
8
0
100
AcDbPolyline
90
4
70
1
43
0.0
10
207.31257500000001
20
31.100149999999992
10
221.31257500000007
20
31.100149999999992
10
221.31257500000007
20
45.099550000000022
10
207.31257500000001
20
45.099550000000022
0
LINE
5
299
100
AcDbEntity
8
0
100
AcDbLine
10
277.60657500000002
20
31.33034999999996
30
0
11
278.75057500000003
21
31.33034999999996
31
0
0
LINE
5
300
100
AcDbEntity
8
0
100
AcDbLine
10
41.205375000000004
20
30.130049999999979
30
0
11
44.505775000000028
21
30.130049999999979
31
0
0
LINE
5
301
100
AcDbEntity
8
0
100
AcDbLine
10
282.63057500000002
20
30.130049999999979
30
0
11
282.63057500000002
21
31.100149999999992
31
0
0
LWPOLYLINE
5
302
100
AcDbEntity
8
0
100
AcDbPolyline
90
4
70
1
43
0.0
10
54.912775000000018
20
45.099550000000022
10
54.912775000000018
20
31.100149999999992
10
68.912074999999959
20
31.100149999999992
10
68.912074999999959
20
45.099550000000022
0
LINE
5
303
100
AcDbEntity
8
0
100
AcDbLine
10
44.505775000000028
20
30.130049999999979
30
0
11
44.505775000000028
21
31.100149999999992
31
0
0
LINE
5
304
100
AcDbEntity
8
0
100
AcDbLine
10
292.74957500000016
20
31.100149999999992
30
0
11
292.74957500000016
21
45.099550000000022
31
0
0
LINE
5
305
100
AcDbEntity
8
0
100
AcDbLine
10
17.406665000000029
20
31.100149999999992
30
0
11
17.406665000000029
21
30.130049999999979
31
0
0
LINE
5
306
100
AcDbEntity
8
0
100
AcDbLine
10
277.60657500000002
20
43.629349999999995
30
0
11
277.60657500000002
21
40.399149999999963
31
0
0
LINE
5
307
100
AcDbEntity
8
0
100
AcDbLine
10
49.862074999999997
20
45.099550000000022
30
0
11
14.431485000000011
21
45.099550000000022
31
0
0
LWPOLYLINE
5
308
100
AcDbEntity
8
0
100
AcDbPolyline
90
4
70
1
43
0.0
10
150.162575
20
45.099550000000022
10
150.162575
20
31.100149999999992
10
164.162575
20
31.100149999999992
10
164.162575
20
45.099550000000022
0
LWPOLYLINE
5
309
100
AcDbEntity
8
0
100
AcDbPolyline
90
4
70
1
43
0.0
10
249.88757500000003
20
50.15035000000001
10
249.88757500000003
20
64.149650000000008
10
235.887575
20
64.149650000000008
10
235.887575
20
50.15035000000001
0
LWPOLYLINE
5
310
100
AcDbEntity
8
0
100
AcDbPolyline
90
4
70
1
43
0.0
10
131.11257499999999
20
31.100149999999992
10
145.11257499999999
20
31.100149999999992
10
145.11257499999999
20
45.099550000000022
10
131.11257499999999
20
45.099550000000022
0
LINE
5
311
100
AcDbEntity
8
0
100
AcDbLine
10
290.36857500000002
20
59.67534999999998
30
0
11
290.36857500000002
21
73.674649999999986
31
0
0
LINE
5
312
100
AcDbEntity
8
0
100
AcDbLine
10
278.75057500000003
20
45.099550000000022
30
0
11
278.75057500000003
21
43.629349999999995
31
0
0
LWPOLYLINE
5
313
100
AcDbEntity
8
0
100
AcDbPolyline
90
4
70
1
43
0.0
10
112.062575
20
31.100149999999992
10
126.062575
20
31.100149999999992
10
126.062575
20
45.099550000000022
10
112.062575
20
45.099550000000022
0
LINE
5
314
100
AcDbEntity
8
0
100
AcDbLine
10
278.75057500000003
20
31.33034999999996
30
0
11
278.75057500000003
21
31.100149999999992
31
0
0
LWPOLYLINE
5
315
100
AcDbEntity
8
0
100
AcDbPolyline
90
4
70
1
43
0.0
10
93.012775000000033
20
45.099550000000022
10
93.012775000000033
20
31.100149999999992
10
107.01207500000001
20
31.100149999999992
10
107.01207500000001
20
45.099550000000022
0
LWPOLYLINE
5
316
100
AcDbEntity
8
0
100
AcDbPolyline
90
4
70
1
43
0.0
10
87.962075000000056
20
45.099550000000022
10
73.962774999999951
20
45.099550000000022
10
73.962774999999951
20
31.100149999999992
10
87.962075000000056
20
31.100149999999992
0
LWPOLYLINE
5
317
100
AcDbEntity
8
0
100
AcDbPolyline
90
4
70
1
43
0.0
10
230.83757500000002
20
64.149650000000008
10
216.83757499999999
20
64.149650000000008
10
216.83757499999999
20
50.15035000000001
10
230.83757500000002
20
50.15035000000001
0
LINE
5
318
100
AcDbEntity
8
0
100
AcDbLine
10
277.60657500000002
20
40.399149999999963
30
0
11
277.60657500000002
21
31.33034999999996
31
0
0
LINE
5
319
100
AcDbEntity
8
0
100
AcDbLine
10
17.406665000000029
20
30.130049999999979
30
0
11
20.705675000000042
21
30.130049999999979
31
0
0
LINE
5
320
100
AcDbEntity
8
0
100
AcDbLine
10
292.74957500000016
20
45.099550000000022
30
0
11
278.75057500000003
21
45.099550000000022
31
0
0
LINE
5
321
100
AcDbEntity
8
0
100
AcDbLine
10
278.75057500000003
20
43.629349999999995
30
0
11
277.60657500000002
21
43.629349999999995
31
0
0
LWPOLYLINE
5
322
100
AcDbEntity
8
0
100
AcDbPolyline
90
4
70
1
43
0.0
10
-9.3808999999999738
20
12.049840000000017
10
4.6183999999999772
20
12.049840000000017
10
4.6183999999999772
20
26.049240000000047
10
-9.3808999999999738
20
26.049240000000047
0
CIRCLE
5
323
100
AcDbEntity
8
0
100
AcDbCircle
10
-2.3811242141483389
20
19.049489952863841
30
0
40
2
210
0
220
0
230
1
0
LWPOLYLINE
5
324
100
AcDbEntity
8
0
100
AcDbPolyline
90
4
70
1
43
0.0
10
16.812724214148368
20
12.050190047136196
10
30.812024214148316
20
12.050190047136196
10
30.812024214148316
20
26.049590047136224
10
16.812724214148368
20
26.049590047136224
0
CIRCLE
5
325
100
AcDbEntity
8
0
100
AcDbCircle
10
23.8125
20
19.049840000000017
30
0
40
2
210
0
220
0
230
1
0
LWPOLYLINE
5
326
100
AcDbEntity
8
0
100
AcDbPolyline
90
4
70
1
43
0.0
10
59.619100000000032
20
12.049840000000017
10
73.61839999999998
20
12.049840000000017
10
73.61839999999998
20
26.049240000000047
10
59.619100000000032
20
26.049240000000047
0
CIRCLE
5
327
100
AcDbEntity
8
0
100
AcDbCircle
10
66.618875785851671
20
19.049489952863841
30
0
40
2
210
0
220
0
230
1
0
LWPOLYLINE
5
328
100
AcDbEntity
8
0
100
AcDbPolyline
90
4
70
1
43
0.0
10
109.82088108285458
20
26.049589999999956
10
109.82088108285458
20
12.050189999999928
10
123.82018108285453
20
12.050189999999928
10
123.82018108285453
20
26.049589999999956
0
CIRCLE
5
329
100
AcDbEntity
8
0
100
AcDbCircle
10
116.82065686870622
20
19.049839952863749
30
0
40
2
210
0
220
0
230
1
0
LWPOLYLINE
5
330
100
AcDbEntity
8
0
100
AcDbPolyline
90
8
70
1
43
0.0
10
152.35027421414833
20
12.050189999999928
10
138.35097421414838
20
12.050189999999928
10
138.35097421414838
20
26.049589999999956
10
141.60175000000004
20
26.049589999999956
10
141.60175000000004
20
26.966959999999997
10
149.17675
20
26.966959999999997
10
149.17675
20
26.049589999999956
10
152.35027421414833
20
26.049589999999956
0
CIRCLE
5
331
100
AcDbEntity
8
0
100
AcDbCircle
10
145.35075000000001
20
19.049839952863749
30
0
40
2
210
0
220
0
230
1
0
CIRCLE
5
332
100
AcDbEntity
8
0
100
AcDbCircle
10
183.35624999999999
20
19.048391919531692
30
0
40
2
210
0
220
0
230
1
0
LWPOLYLINE
5
333
100
AcDbEntity
8
0
100
AcDbPolyline
90
4
70
1
43
0.0
10
190.35577421414831
20
12.048741966667871
10
176.35647421414836
20
12.048741966667871
10
176.35647421414836
20
26.048141966667899
10
190.35577421414831
20
26.048141966667899
0
CIRCLE
5
334
100
AcDbEntity
8
0
100
AcDbCircle
10
223.83750000000006
20
19.048391919531692
30
0
40
2
210
0
220
0
230
1
0
LWPOLYLINE
5
335
100
AcDbEntity
8
0
100
AcDbPolyline
90
4
70
1
43
0.0
10
230.83702421414839
20
12.048741966667871
10
216.83772421414844
20
12.048741966667871
10
216.83772421414844
20
26.048141966667899
10
230.83702421414839
20
26.048141966667899
0
CIRCLE
5
336
100
AcDbEntity
8
0
100
AcDbCircle
10
261.9375
20
19.048391919531692
30
0
40
2
210
0
220
0
230
1
0
LWPOLYLINE
5
337
100
AcDbEntity
8
0
100
AcDbPolyline
90
4
70
1
43
0.0
10
268.93702421414832
20
12.048741966667871
10
254.93772421414837
20
12.048741966667871
10
254.93772421414837
20
26.048141966667899
10
268.93702421414832
20
26.048141966667899
0
LWPOLYLINE
5
338
100
AcDbEntity
8
0
100
AcDbPolyline
90
4
70
1
43
0.0
10
294.98665
20
22.54886600690206
10
280.98735000000005
20
22.54886600690206
10
280.98735000000005
20
8.5494660069020334
10
294.98665
20
8.5494660069020334
0
CIRCLE
5
339
100
AcDbEntity
8
0
100
AcDbCircle
10
287.98712578585167
20
15.549115959765857
30
0
40
2
210
0
220
0
230
1
0
LWPOLYLINE
5
340
100
AcDbEntity
8
0
100
AcDbPolyline
90
4
70
1
43
0.0
10
314.1807742141483
20
22.54886600690206
10
300.18147421414835
20
22.54886600690206
10
300.18147421414835
20
8.5494660069020334
10
314.1807742141483
20
8.5494660069020334
0
CIRCLE
5
341
100
AcDbEntity
8
0
100
AcDbCircle
10
307.18124999999998
20
15.549115959765857
30
0
40
2
210
0
220
0
230
1
0
LWPOLYLINE
5
342
100
AcDbEntity
8
0
100
AcDbPolyline
90
4
70
1
43
0.0
10
333.23077421414825
20
22.54886600690206
10
319.23147421414831
20
22.54886600690206
10
319.23147421414831
20
8.5494660069020334
10
333.23077421414825
20
8.5494660069020334
0
CIRCLE
5
343
100
AcDbEntity
8
0
100
AcDbCircle
10
326.23124999999993
20
15.549115959765857
30
0
40
2
210
0
220
0
230
1
0
LWPOLYLINE
5
344
100
AcDbEntity
8
0
100
AcDbPolyline
90
4
70
1
43
0.0
10
4.6183999999999772
20
45.099240000000052
10
-9.3808999999999738
20
45.099240000000052
10
-9.3808999999999738
20
31.099840000000022
10
4.6183999999999772
20
31.099840000000022
0
CIRCLE
5
345
100
AcDbEntity
8
0
100
AcDbCircle
10
-2.3811242141483389
20
38.099489952863841
30
0
40
2
210
0
220
0
230
1
0
LWPOLYLINE
5
346
100
AcDbEntity
8
0
100
AcDbPolyline
90
4
70
1
43
0.0
10
4.6183999999999772
20
64.149240000000049
10
-9.3808999999999738
20
64.149240000000049
10
-9.3808999999999738
20
50.149840000000019
10
4.6183999999999772
20
50.149840000000019
0
CIRCLE
5
347
100
AcDbEntity
8
0
100
AcDbCircle
10
-2.3811242141483389
20
57.149489952863846
30
0
40
2
210
0
220
0
230
1
0
LWPOLYLINE
5
348
100
AcDbEntity
8
0
100
AcDbPolyline
90
4
70
1
43
0.0
10
4.6183999999999772
20
83.19924000000006
10
-9.3808999999999738
20
83.19924000000006
10
-9.3808999999999738
20
69.199840000000023
10
4.6183999999999772
20
69.199840000000023
0
CIRCLE
5
349
100
AcDbEntity
8
0
100
AcDbCircle
10
-2.3811242141483389
20
76.199489952863843
30
0
40
2
210
0
220
0
230
1
0
LWPOLYLINE
5
350
100
AcDbEntity
8
0
100
AcDbPolyline
90
4
70
1
43
0.0
10
4.6183999999999772
20
102.24924000000004
10
-9.3808999999999738
20
102.24924000000004
10
-9.3808999999999738
20
88.24984000000002
10
4.6183999999999772
20
88.24984000000002
0
CIRCLE
5
351
100
AcDbEntity
8
0
100
AcDbCircle
10
-2.3811242141483389
20
95.249489952863826
30
0
40
2
210
0
220
0
230
1
0
LWPOLYLINE
5
352
100
AcDbEntity
8
0
100
AcDbPolyline
90
8
70
1
43
0.0
10
-9.8810000000000286
20
6.5494660069020334
10
338.49402421414834
20
6.5494660069020298
42
0.41421356237310414
10
339.99402421414834
20
8.0494660069020618
10
339.99402421414834
20
104.06176600690196
42
0.41421356237310197
10
338.49402421414834
20
105.56176600690199
10
-9.8810000000000286
20
105.56176600690199
42
0.4142135623730836
10
-11.380999999999993
20
104.06176600690195
10
-11.38099999999999
20
8.0494660069020529
42
0.41421356237308332
0
LWPOLYLINE
5
353
100
AcDbEntity
8
0
100
AcDbPolyline
90
4
70
1
43
0.0
10
314.18102499999998
20
27.599465959765869
10
314.18102499999998
20
41.598765959765828
10
300.18147500000003
20
41.598765959765828
10
300.18147500000003
20
27.599465959765869
0
LWPOLYLINE
5
354
100
AcDbEntity
8
0
100
AcDbPolyline
90
4
70
1
43
0.0
10
300.1814742141483
20
41.598866006902071
10
300.1814742141483
20
27.599466006902034
10
314.18147421414835
20
27.599466006902034
10
314.18147421414835
20
41.598866006902071
0
CIRCLE
5
355
100
AcDbEntity
8
0
100
AcDbCircle
10
307.18124999999998
20
34.599115959765861
30
0
40
2
210
0
220
0
230
1
0
CIRCLE
5
356
100
AcDbEntity
8
0
100
AcDbCircle
10
330.99424921414828
20
39.412116006902025
30
0
40
2
210
0
220
0
230
1
0
LWPOLYLINE
5
357
100
AcDbEntity
8
0
100
AcDbPolyline
90
4
70
1
43
0.0
10
323.99447421414834
20
32.412466006902036
10
337.99402421414834
20
32.412466006902036
10
337.99402421414834
20
46.411766006901985
10
323.99447421414834
20
46.411766006901985
0
LWPOLYLINE
5
358
100
AcDbEntity
8
0
100
AcDbPolyline
90
4
70
1
43
0.0
10
337.99402421414834
20
65.461766006901996
10
323.99447421414834
20
65.461766006901996
10
323.99447421414834
20
51.462466006902041
10
337.99402421414834
20
51.462466006902041
0
CIRCLE
5
359
100
AcDbEntity
8
0
100
AcDbCircle
10
330.99424921414828
20
58.462116006902029
30
0
40
2
210
0
220
0
230
1
0
LWPOLYLINE
5
360
100
AcDbEntity
8
0
100
AcDbPolyline
90
4
70
1
43
0.0
10
337.99402421414834
20
70.512466006902045
10
337.99402421414834
20
84.511766006902008
10
323.99447421414834
20
84.511766006902008
10
323.99447421414834
20
70.512466006902045
0
CIRCLE
5
361
100
AcDbEntity
8
0
100
AcDbCircle
10
330.99424921414828
20
77.512116006902033
30
0
40
2
210
0
220
0
230
1
0
LWPOLYLINE
5
362
100
AcDbEntity
8
0
100
AcDbPolyline
90
4
70
1
43
0.0
10
337.99402421414834
20
89.562466006902042
10
337.99402421414834
20
103.56176600690199
10
323.99447421414834
20
103.56176600690199
10
323.99447421414834
20
89.562466006902042
0
CIRCLE
5
363
100
AcDbEntity
8
0
100
AcDbCircle
10
330.99424921414828
20
96.562116006902016
30
0
40
2
210
0
220
0
230
1
0
LWPOLYLINE
5
364
100
AcDbEntity
8
0
100
AcDbPolyline
90
4
70
1
43
0.0
10
318.94402421414833
20
65.461766006901996
10
304.94447421414833
20
65.461766006901996
10
304.94447421414833
20
51.462466006902041
10
318.94402421414833
20
51.462466006902041
0
CIRCLE
5
365
100
AcDbEntity
8
0
100
AcDbCircle
10
311.94424921414827
20
58.462116006902029
30
0
40
2
210
0
220
0
230
1
0
LWPOLYLINE
5
366
100
AcDbEntity
8
0
100
AcDbPolyline
90
4
70
1
43
0.0
10
318.94402421414833
20
84.511766006902008
10
304.94447421414833
20
84.511766006902008
10
304.94447421414833
20
70.512466006902045
10
318.94402421414833
20
70.512466006902045
0
CIRCLE
5
367
100
AcDbEntity
8
0
100
AcDbCircle
10
311.94424921414827
20
77.512116006902033
30
0
40
2
210
0
220
0
230
1
0
LWPOLYLINE
5
368
100
AcDbEntity
8
0
100
AcDbPolyline
90
4
70
1
43
0.0
10
318.94402421414833
20
103.56176600690199
10
304.94447421414833
20
103.56176600690199
10
304.94447421414833
20
89.562466006902042
10
318.94402421414833
20
89.562466006902042
0
CIRCLE
5
369
100
AcDbEntity
8
0
100
AcDbCircle
10
311.94424921414827
20
96.562116006902016
30
0
40
2
210
0
220
0
230
1
0
LINE
5
370
100
AcDbEntity
8
0
100
AcDbLine
10
91.576750000000004
20
26.966959999999997
30
0
11
91.576750000000004
21
13.467640000000006
31
0
0
LINE
5
371
100
AcDbEntity
8
0
100
AcDbLine
10
91.576750000000004
20
13.467640000000006
30
0
11
84.001750000000015
21
13.467640000000006
31
0
0
LINE
5
372
100
AcDbEntity
8
0
100
AcDbLine
10
84.001750000000015
20
26.966959999999997
30
0
11
91.576750000000004
21
26.966959999999997
31
0
0
LINE
5
373
100
AcDbEntity
8
0
100
AcDbLine
10
84.001750000000015
20
13.467640000000006
30
0
11
84.001750000000015
21
26.966959999999997
31
0
0
LWPOLYLINE
5
374
100
AcDbEntity
8
0
100
AcDbPolyline
90
4
70
1
43
0.0
10
199.12575000000001
20
13.467640000000006
10
206.70075
20
13.467640000000006
10
206.70075
20
26.966959999999997
10
199.12575000000001
20
26.966959999999997
0
LWPOLYLINE
5
375
100
AcDbEntity
8
0
100
AcDbPolyline
90
4
70
1
43
0.0
10
160.60175000000001
20
26.966959999999997
10
160.60175000000001
20
13.467640000000006
10
168.17675000000003
20
13.467640000000006
10
168.17675000000003
20
26.966959999999997
0
LINE
5
376
100
AcDbEntity
8
0
100
AcDbLine
10
91.576750000000004
20
13.467640000000006
30
0
11
84.001750000000015
21
13.467640000000006
31
0
0
LINE
5
377
100
AcDbEntity
8
0
100
AcDbLine
10
84.001750000000015
20
13.467640000000006
30
0
11
84.001750000000015
21
26.966959999999997
31
0
0
ENDSEC
0
SECTION
2
OBJECTS
0
DICTIONARY
5
C
100
AcDbDictionary
3
ACAD_GROUP
350
D
3
ACAD_MLINESTYLE
350
17
0
DICTIONARY
5
D
100
AcDbDictionary
0
DICTIONARY
5
1A
330
C
100
AcDbDictionary
0
DICTIONARY
5
17
100
AcDbDictionary
0
ENDSEC
0
EOF
