0
SECTION
2
HEADER
9
$INSUNITS
70
4
9
$ACADVER
1
AC1014
9
$HANDSEED
5
FFFF
0
ENDSEC
0
SECTION
2
TABLES
0
TABLE
2
VPORT
5
8
100
AcDbSymbolTable
0
ENDTAB
0
TABLE
2
LTYPE
5
5
100
AcDbSymbolTable
0
LTYPE
5
14
100
AcDbSymbolTableRecord
100
AcDbLinetypeTableRecord
2
BYBLOCK
70
0
0
LTYPE
5
15
100
AcDbSymbolTableRecord
100
AcDbLinetypeTableRecord
2
BYLAYER
70
0
0
ENDTAB
0
TABLE
2
LAYER
5
2
100
AcDbSymbolTable
70
2
0
LAYER
5
50
100
AcDbSymbolTableRecord
100
AcDbLayerTableRecord
2
0
70
0
6
CONTINUOUS
0
ENDTAB
0
TABLE
2
STYLE
5
3
100
AcDbSymbolTable
70
1
0
STYLE
5
11
100
AcDbSymbolTableRecord
100
AcDbTextStyleTableRecord
2
STANDARD
70
0
0
ENDTAB
0
TABLE
2
VIEW
5
6
100
AcDbSymbolTable
70
0
0
ENDTAB
0
TABLE
2
UCS
5
7
100
AcDbSymbolTable
70
0
0
ENDTAB
0
TABLE
2
APPID
5
9
100
AcDbSymbolTable
70
2
0
APPID
5
12
100
AcDbSymbolTableRecord
100
AcDbRegAppTableRecord
2
ACAD
70
0
0
ENDTAB
0
TABLE
2
DIMSTYLE
5
A
100
AcDbSymbolTable
70
1
0
ENDTAB
0
TABLE
2
BLOCK_RECORD
5
1
100
AcDbSymbolTable
70
1
0
BLOCK_RECORD
5
1F
100
AcDbSymbolTableRecord
100
AcDbBlockTableRecord
2
*MODEL_SPACE
0
BLOCK_RECORD
5
1B
100
AcDbSymbolTableRecord
100
AcDbBlockTableRecord
2
*PAPER_SPACE
0
ENDTAB
0
ENDSEC
0
SECTION
2
BLOCKS
0
BLOCK
5
20
100
AcDbEntity
100
AcDbBlockBegin
2
*MODEL_SPACE
0
ENDBLK
5
21
100
AcDbEntity
100
AcDbBlockEnd
0
BLOCK
5
1C
100
AcDbEntity
100
AcDbBlockBegin
2
*PAPER_SPACE
0
ENDBLK
5
1D
100
AcDbEntity
100
AcDbBlockEnd
0
ENDSEC
0
SECTION
2
ENTITIES
0
LWPOLYLINE
5
100
100
AcDbEntity
8
0
100
AcDbPolyline
90
8
70
1
43
0.0
10
336.39999999999998
20
-54.624999999999979
42
-0.41421356237309503
10
335.90000000000003
20
-54.125000000000007
10
335.90000000000003
20
-41.125
42
-0.41421356237309503
10
336.39999999999998
20
-40.625
10
349.39999999999998
20
-40.625000000000028
42
-0.41421356237309503
10
349.89999999999998
20
-41.125
10
349.89999999999998
20
-54.125000000000007
42
-0.41421356237309503
10
349.39999999999998
20
-54.625
0
LWPOLYLINE
5
101
100
AcDbEntity
8
0
100
AcDbPolyline
90
4
70
1
43
0.0
10
364.90000000000003
20
12.475000000000003
10
-12.475000000000003
20
12.475000000000005
10
-12.475000000000023
20
-112.48750000000001
10
364.90000000000003
20
-112.48750000000001
0
LWPOLYLINE
5
102
100
AcDbEntity
8
0
100
AcDbPolyline
90
8
70
1
43
0.0
10
349.39999999999998
20
-59.675000000000026
42
-0.41421356237309503
10
349.89999999999998
20
-60.174999999999997
10
349.89999999999998
20
-73.174999999999997
42
-0.41421356237309503
10
349.39999999999998
20
-73.674999999999997
10
336.39999999999998
20
-73.67500000000004
42
-0.41421356237309503
10
335.89999999999998
20
-73.174999999999997
10
335.90000000000003
20
-60.174999999999997
42
-0.41421356237309503
10
336.39999999999998
20
-59.675000000000004
0
LWPOLYLINE
5
103
100
AcDbEntity
8
0
100
AcDbPolyline
90
8
70
1
43
0.0
10
330.85000000000002
20
-54.125000000000007
42
-0.41421356237309503
10
330.35000000000002
20
-54.625
10
317.35000000000002
20
-54.625000000000014
42
-0.41421356237309503
10
316.85000000000002
20
-54.125000000000007
10
316.85000000000002
20
-41.125
42
-0.41421356237309503
10
317.35000000000002
20
-40.625
10
330.35000000000002
20
-40.625000000000028
42
-0.41421356237309503
10
330.85000000000002
20
-41.125
0
LWPOLYLINE
5
104
100
AcDbEntity
8
0
100
AcDbPolyline
90
8
70
1
43
0.0
10
207.3125
20
-35.075000000000003
10
207.3125
20
-22.074999999999999
42
-0.41421356237309503
10
207.8125
20
-21.575000000000003
10
220.8125
20
-21.574999999999992
42
-0.41421356237309503
10
221.3125
20
-22.074999999999999
10
221.3125
20
-35.075000000000003
42
-0.41421356237309503
10
220.8125
20
-35.575000000000003
10
207.8125
20
-35.57500000000001
42
-0.41421356237309503
0
LWPOLYLINE
5
105
100
AcDbEntity
8
0
100
AcDbPolyline
90
8
70
1
43
0.0
10
349.89999999999998
20
-16.024999999999999
42
-0.41421356237309503
10
349.39999999999998
20
-16.524999999999999
10
336.39999999999998
20
-16.525000000000041
42
-0.41421356237309503
10
335.89999999999998
20
-16.024999999999999
10
335.90000000000003
20
-3.0249999999999999
42
-0.41421356237309503
10
336.39999999999998
20
-2.5249999999999999
10
349.39999999999998
20
-2.5249999999999573
42
-0.41421356237309503
10
349.90000000000003
20
-3.0249999999999999
0
LWPOLYLINE
5
106
100
AcDbEntity
8
0
100
AcDbPolyline
90
8
70
1
43
0.0
10
26.837499999999999
20
-16.524999999999999
42
-0.41421356237309503
10
26.337499999999999
20
-16.024999999999999
10
26.337499999999999
20
-3.0249999999999999
42
-0.41421356237309503
10
26.837499999999999
20
-2.5249999999999999
10
39.837499999999999
20
-2.5249999999999972
42
-0.41421356237309503
10
40.337500000000006
20
-3.0249999999999999
10
40.337499999999991
20
-16.024999999999999
42
-0.41421356237309503
10
39.837499999999999
20
-16.524999999999999
0
LWPOLYLINE
5
107
100
AcDbEntity
8
0
100
AcDbPolyline
90
34
70
1
43
0.0
10
302.27499999999998
20
-31.100000000000001
10
304.15625
20
-31.099999999999994
42
-0.41421356237309503
10
304.65625
20
-31.600000000000001
10
304.65625
20
-55.000000819563866
10
303.56925000000001
20
-55.000000819563866
10
303.56925000000001
20
-56.125000000000007
42
-0.41421356237309503
10
303.06925000000001
20
-56.625000000000007
10
297.06925000000001
20
-56.625000000000014
42
-0.41421356237309503
10
296.56925000000001
20
-56.125000000000007
10
296.56925000000001
20
-54.625
10
279.69325000000003
20
-54.625
10
279.69325000000003
20
-56.125000000000007
42
-0.41421356237309503
10
279.19325000000003
20
-56.625000000000007
10
273.19324999999998
20
-56.625000000000014
42
-0.41421356237309503
10
272.69324999999998
20
-56.125000000000007
10
272.69324999999998
20
-54.625
10
269.72500000000002
20
-54.625000000000014
42
-0.41421356237309503
10
269.22500000000002
20
-54.125000000000007
10
269.22500000000002
20
-41.125
42
-0.41421356237309503
10
269.72500000000002
20
-40.625
10
290.65625
20
-40.625
10
290.65625
20
-35.575000000000003
10
288.77499999999998
20
-35.574999999999974
42
-0.41421356237309503
10
288.27499999999998
20
-35.075000000000003
10
288.27499999999998
20
-22.074999999999999
42
-0.41421356237309503
10
288.77499999999998
20
-21.575000000000003
10
301.77499999999998
20
-21.574999999999992
42
-0.41421356237309503
10
302.27499999999998
20
-22.074999999999999
10
302.27499999999998
20
-22.661999999999999
10
303.15625
20
-22.661999999999992
42
-0.41421356237309503
10
303.65625
20
-23.161999999999999
10
303.65625
20
-29.161999999999999
42
-0.41421356237309503
10
303.15625
20
-29.661999999999999
10
302.27499999999998
20
-29.661999999999999
0
LWPOLYLINE
5
108
100
AcDbEntity
8
0
100
AcDbPolyline
90
8
70
1
43
0.0
10
240.65000000000001
20
-60.174999999999997
42
-0.41421356237309503
10
241.15000000000003
20
-59.675000000000004
10
254.15000000000003
20
-59.674999999999997
42
-0.41421356237309503
10
254.65000000000003
20
-60.174999999999997
10
254.65000000000003
20
-73.174999999999997
42
-0.41421356237309503
10
254.15000000000003
20
-73.674999999999997
10
241.15000000000003
20
-73.675000000000011
42
-0.41421356237309503
10
240.65000000000001
20
-73.174999999999997
0
LWPOLYLINE
5
109
100
AcDbEntity
8
0
100
AcDbPolyline
90
8
70
1
43
0.0
10
347.66300000000001
20
-100.0125
10
290.51300000000003
20
-100.0125
10
290.51300000000003
20
-80.962500000000006
10
309.56300000000005
20
-80.962500000000006
10
309.56300000000005
20
-61.912500000000023
10
328.613
20
-61.912500000000023
10
328.613
20
-80.962500000000006
10
347.66300000000001
20
-80.962500000000006
0
LWPOLYLINE
5
110
100
AcDbEntity
8
0
100
AcDbPolyline
90
8
70
1
43
0.0
10
64.150000000000006
20
-92.224999999999994
10
64.150000000000006
20
-79.224999999999994
42
0.41421356237309503
10
63.650000000000006
20
-78.724999999999994
10
50.650000000000006
20
-78.724999999999994
42
0.41421356237309503
10
50.150000000000006
20
-79.224999999999994
10
50.150000000000006
20
-92.224999999999994
42
0.41421356237309503
10
50.650000000000006
20
-92.724999999999994
10
63.650000000000006
20
-92.724999999999994
42
0.41421356237309503
0
LINE
5
111
100
AcDbEntity
8
0
100
AcDbLine
10
19.050644677985815
20
0
30
0
11
19.000000283122063
21
0
31
0
0
LWPOLYLINE
5
112
100
AcDbEntity
8
0
100
AcDbPolyline
90
8
70
1
43
0.0
10
188.76249999999999
20
-92.725000000000009
42
-0.41421356237309503
10
188.26249999999999
20
-92.224999999999994
10
188.26249999999999
20
-79.224999999999994
42
-0.41421356237309503
10
188.76249999999999
20
-78.724999999999994
10
201.76249999999999
20
-78.724999999999994
42
-0.41421356237309503
10
202.26249999999999
20
-79.224999999999994
10
202.26249999999999
20
-92.224999999999994
42
-0.41421356237309503
10
201.76249999999999
20
-92.724999999999994
0
LWPOLYLINE
5
113
100
AcDbEntity
8
0
100
AcDbPolyline
90
8
70
1
43
0.0
10
202.55000000000001
20
-60.174999999999997
42
-0.41421356237309503
10
203.05000000000004
20
-59.675000000000004
10
216.05000000000004
20
-59.675000000000026
42
-0.41421356237309503
10
216.55000000000001
20
-60.174999999999997
10
216.55000000000004
20
-73.174999999999997
42
-0.41421356237309503
10
216.05000000000004
20
-73.674999999999997
10
203.05000000000004
20
-73.675000000000011
42
-0.41421356237309503
10
202.55000000000001
20
-73.174999999999997
0
LWPOLYLINE
5
114
100
AcDbEntity
8
0
100
AcDbPolyline
90
8
70
1
43
0.0
10
29.5
20
-35.075000000000003
42
-0.41421356237309503
10
29.000000000000004
20
-35.575000000000003
10
28.000000000000004
20
-35.575000000000003
42
-0.41421356237309503
10
27.500000000000004
20
-35.075000000000003
10
27.500000000000004
20
-22.074999999999999
42
-0.41421356237309503
10
28.000000000000004
20
-21.575000000000003
10
29.000000000000004
20
-21.575000000000003
42
-0.41421356237309503
10
29.5
20
-22.074999999999999
0
LWPOLYLINE
5
115
100
AcDbEntity
8
0
100
AcDbPolyline
90
8
70
1
43
0.0
10
316.85000000000002
20
-22.074999999999999
42
-0.41421356237309503
10
317.35000000000002
20
-21.575000000000003
10
330.35000000000002
20
-21.575000000000028
42
-0.41421356237309503
10
330.85000000000002
20
-22.074999999999999
10
330.85000000000002
20
-35.075000000000003
42
-0.41421356237309503
10
330.35000000000002
20
-35.575000000000003
10
317.35000000000002
20
-35.57500000000001
42
-0.41421356237309503
10
316.85000000000002
20
-35.075000000000003
0
LINE
5
116
100
AcDbEntity
8
0
100
AcDbLine
10
66.150000000000006
20
-95.72499999999998
30
0
11
66.150000000000006
21
-92.224999999999994
31
0
0
LWPOLYLINE
5
117
100
AcDbEntity
8
0
100
AcDbPolyline
90
8
70
1
43
0.0
10
317.35000000000002
20
-16.525000000000006
42
-0.41421356237309503
10
316.85000000000002
20
-16.024999999999999
10
316.85000000000002
20
-3.0249999999999999
42
-0.41421356237309503
10
317.35000000000002
20
-2.5249999999999999
10
330.35000000000002
20
-2.5250000000000283
42
-0.41421356237309503
10
330.85000000000002
20
-3.0249999999999999
10
330.85000000000002
20
-16.024999999999999
42
-0.41421356237309503
10
330.35000000000002
20
-16.524999999999999
0
LWPOLYLINE
5
118
100
AcDbEntity
8
0
100
AcDbPolyline
90
8
70
1
43
0.0
10
193.52500000000003
20
-54.625000000000014
42
-0.41421356237309503
10
193.02500000000003
20
-54.125000000000007
10
193.02500000000003
20
-41.125
42
-0.41421356237309503
10
193.52500000000003
20
-40.625
10
206.52500000000003
20
-40.625000000000028
42
-0.41421356237309503
10
207.02500000000001
20
-41.125
10
207.02500000000003
20
-54.125000000000007
42
-0.41421356237309503
10
206.52500000000003
20
-54.625
0
LWPOLYLINE
5
119
100
AcDbEntity
8
0
100
AcDbPolyline
90
8
70
1
43
0.0
10
235.60000000000002
20
-73.174999999999997
42
-0.41421356237309503
10
235.10000000000002
20
-73.674999999999997
10
222.10000000000002
20
-73.675000000000011
42
-0.41421356237309503
10
221.59999999999999
20
-73.174999999999997
10
221.59999999999999
20
-60.174999999999997
42
-0.41421356237309503
10
222.10000000000002
20
-59.675000000000004
10
235.10000000000002
20
-59.674999999999997
42
-0.41421356237309503
10
235.60000000000002
20
-60.174999999999997
0
LWPOLYLINE
5
120
100
AcDbEntity
8
0
100
AcDbPolyline
90
8
70
1
43
0.0
10
73.962500000000006
20
-22.074999999999999
42
-0.41421356237309503
10
74.462500000000006
20
-21.575000000000003
10
87.46250000000002
20
-21.574999999999992
42
-0.41421356237309503
10
87.96250000000002
20
-22.074999999999999
10
87.962500000000006
20
-35.075000000000003
42
-0.41421356237309503
10
87.46250000000002
20
-35.575000000000003
10
74.462500000000006
20
-35.575000000000003
42
-0.41421356237309503
10
73.962500000000006
20
-35.075000000000003
0
LINE
5
121
100
AcDbEntity
8
0
100
AcDbLine
10
314.32499999999999
20
0
30
0
11
352.42500000000001
21
0
31
0
0
LINE
5
122
100
AcDbEntity
8
0
100
AcDbLine
10
-0.47499999999999998
20
0.47499999999999998
30
0
11
19.475000283122064
21
0.47499999999999998
31
0
0
LWPOLYLINE
5
123
100
AcDbEntity
8
0
100
AcDbPolyline
90
8
70
1
43
0.0
10
307.375
20
-35.575000000000003
10
306.375
20
-35.57500000000001
42
-0.41421356237309503
10
305.875
20
-35.075000000000003
10
305.875
20
-22.074999999999999
42
-0.41421356237309503
10
306.375
20
-21.575000000000003
10
307.375
20
-21.574999999999992
42
-0.41421356237309503
10
307.875
20
-22.074999999999999
10
307.875
20
-35.075000000000003
42
-0.41421356237309503
0
LWPOLYLINE
5
124
100
AcDbEntity
8
0
100
AcDbPolyline
90
8
70
1
43
0.0
10
68.412499999999994
20
-21.575000000000003
42
-0.41421356237309503
10
68.912499999999994
20
-22.074999999999999
10
68.912499999999994
20
-35.075000000000003
42
-0.41421356237309503
10
68.412499999999994
20
-35.575000000000003
10
55.412500000000009
20
-35.575000000000003
42
-0.41421356237309503
10
54.912500000000009
20
-35.075000000000003
10
54.912500000000009
20
-22.074999999999999
42
-0.41421356237309503
10
55.412500000000009
20
-21.575000000000003
0
LINE
5
125
100
AcDbEntity
8
0
100
AcDbLine
10
314.32499999999999
20
-3.0249999999999999
30
0
11
314.32499999999999
21
0
31
0
0
LWPOLYLINE
5
126
100
AcDbEntity
8
0
100
AcDbPolyline
90
20
70
1
43
0.0
10
273.98750000000001
20
-16.024999999999999
10
273.98750000000001
20
-3.0249999999999999
42
-0.41421356237309503
10
274.48750000000007
20
-2.5249999999999999
10
306.53750000000002
20
-2.5249999999999928
42
-0.41421356237309503
10
307.03750000000002
20
-3.0249999999999999
10
307.03750000000002
20
-16.024999999999999
42
-0.41421356237309503
10
306.53750000000002
20
-16.524999999999999
10
305.95050000000003
20
-16.524999999999999
10
305.95050000000003
20
-18.024999999999999
42
-0.41421356237309503
10
305.45049999999998
20
-18.524999999999999
10
299.45049999999998
20
-18.525000000000006
42
-0.41421356237309503
10
298.95049999999998
20
-18.024999999999999
10
298.95049999999998
20
-16.524999999999999
10
282.0745
20
-16.524999999999999
10
282.0745
20
-18.024999999999999
42
-0.41421356237309503
10
281.5745
20
-18.524999999999999
10
275.57450000000006
20
-18.525000000000006
42
-0.41421356237309503
10
275.0745
20
-18.024999999999999
10
275.0745
20
-16.524999999999999
10
274.48750000000007
20
-16.525000000000006
42
-0.41421356237309503
0
LWPOLYLINE
5
127
100
AcDbEntity
8
0
100
AcDbPolyline
90
8
70
1
43
0.0
10
245.12500000000003
20
-54.125000000000007
42
-0.41421356237309503
10
244.62500000000003
20
-54.625
10
231.625
20
-54.625000000000014
42
-0.41421356237309503
10
231.125
20
-54.125000000000007
10
231.125
20
-41.125
42
-0.41421356237309503
10
231.625
20
-40.625
10
244.62500000000003
20
-40.624999999999993
42
-0.41421356237309503
10
245.12500000000003
20
-41.125
0
LWPOLYLINE
5
128
100
AcDbEntity
8
0
100
AcDbPolyline
90
8
70
1
43
0.0
10
235.88750000000002
20
-16.024999999999999
10
235.88750000000002
20
-3.0249999999999999
42
-0.41421356237309503
10
236.38750000000002
20
-2.5249999999999999
10
249.38749999999999
20
-2.5249999999999928
42
-0.41421356237309503
10
249.88749999999999
20
-3.0249999999999999
10
249.88749999999999
20
-16.024999999999999
42
-0.41421356237309503
10
249.38749999999999
20
-16.524999999999999
10
236.38750000000002
20
-16.525000000000006
42
-0.41421356237309503
0
LWPOLYLINE
5
129
100
AcDbEntity
8
0
100
AcDbPolyline
90
8
70
1
43
0.0
10
349.89999999999998
20
-35.075000000000003
42
-0.41421356237309503
10
349.39999999999998
20
-35.575000000000003
10
336.39999999999998
20
-35.574999999999974
42
-0.41421356237309503
10
335.90000000000003
20
-35.075000000000003
10
335.90000000000003
20
-22.074999999999999
42
-0.41421356237309503
10
336.39999999999998
20
-21.575000000000003
10
349.39999999999998
20
-21.575000000000028
42
-0.41421356237309503
10
349.89999999999998
20
-22.074999999999999
0
LWPOLYLINE
5
130
100
AcDbEntity
8
0
100
AcDbPolyline
90
8
70
1
43
0.0
10
268.4375
20
-16.525000000000002
10
255.43750000000003
20
-16.525000000000006
42
-0.41421356237309503
10
254.93750000000003
20
-16.024999999999999
10
254.93750000000003
20
-3.0249999999999999
42
-0.41421356237309503
10
255.43750000000003
20
-2.5249999999999999
10
268.4375
20
-2.5249999999999928
42
-0.41421356237309503
10
268.9375
20
-3.0249999999999999
10
268.9375
20
-16.024999999999999
42
-0.41421356237309503
0
LWPOLYLINE
5
131
100
AcDbEntity
8
0
100
AcDbPolyline
90
8
70
1
43
0.0
10
16.024999999999999
20
-2.5250000000000017
42
-0.41421356237309503
10
16.524999999999999
20
-3.0249999999999999
10
16.524999999999999
20
-16.024999999999999
42
-0.41421356237309503
10
16.024999999999999
20
-16.524999999999999
10
3.0249999999999999
20
-16.525000000000002
42
-0.41421356237309503
10
2.5249999999999999
20
-16.024999999999999
10
2.5249999999999999
20
-3.0249999999999999
42
-0.41421356237309503
10
3.0249999999999999
20
-2.5249999999999999
0
LWPOLYLINE
5
132
100
AcDbEntity
8
0
100
AcDbPolyline
90
8
70
1
43
0.0
10
16.024999999999999
20
-35.575000000000003
10
3.0249999999999999
20
-35.575000000000003
42
-0.41421356237309503
10
2.5249999999999999
20
-35.075000000000003
10
2.5250000000000017
20
-22.074999999999999
42
-0.41421356237309503
10
3.0249999999999999
20
-21.575000000000003
10
16.024999999999999
20
-21.574999999999996
42
-0.41421356237309503
10
16.525000000000002
20
-22.074999999999999
10
16.524999999999999
20
-35.075000000000003
42
-0.41421356237309503
0
LWPOLYLINE
5
133
100
AcDbEntity
8
0
100
AcDbPolyline
90
8
70
1
43
0.0
10
250.67500000000001
20
-54.625000000000014
42
-0.41421356237309503
10
250.17500000000001
20
-54.125000000000007
10
250.17500000000001
20
-41.125
42
-0.41421356237309503
10
250.67500000000001
20
-40.625
10
263.67500000000001
20
-40.624999999999993
42
-0.41421356237309503
10
264.17500000000007
20
-41.125
10
264.17500000000007
20
-54.125000000000007
42
-0.41421356237309503
10
263.67500000000001
20
-54.625
0
LWPOLYLINE
5
134
100
AcDbEntity
8
0
100
AcDbPolyline
90
8
70
1
43
0.0
10
59.675000000000004
20
-41.125
42
-0.41421356237309503
10
60.174999999999997
20
-40.625
10
73.174999999999997
20
-40.625
42
-0.41421356237309503
10
73.674999999999997
20
-41.125
10
73.674999999999997
20
-54.125000000000007
42
-0.41421356237309503
10
73.174999999999997
20
-54.625
10
60.174999999999997
20
-54.625
42
-0.41421356237309503
10
59.675000000000004
20
-54.125000000000007
0
LWPOLYLINE
5
135
100
AcDbEntity
8
0
100
AcDbPolyline
90
8
70
1
43
0.0
10
201.76249999999999
20
-35.575000000000003
10
188.76249999999999
20
-35.57500000000001
42
-0.41421356237309503
10
188.26249999999999
20
-35.075000000000003
10
188.26249999999999
20
-22.074999999999999
42
-0.41421356237309503
10
188.76249999999999
20
-21.575000000000003
10
201.76249999999999
20
-21.574999999999992
42
-0.41421356237309503
10
202.26249999999999
20
-22.074999999999999
10
202.26249999999999
20
-35.075000000000003
42
-0.41421356237309503
0
LWPOLYLINE
5
136
100
AcDbEntity
8
0
100
AcDbPolyline
90
8
70
1
43
0.0
10
83.200000000000003
20
-73.174999999999997
42
-0.41421356237309503
10
82.700000000000017
20
-73.674999999999997
10
69.700000000000003
20
-73.674999999999997
42
-0.41421356237309503
10
69.200000000000003
20
-73.174999999999997
10
69.200000000000003
20
-60.174999999999997
42
-0.41421356237309503
10
69.700000000000003
20
-59.675000000000004
10
82.700000000000017
20
-59.675000000000011
42
-0.41421356237309503
10
83.200000000000003
20
-60.174999999999997
0
LWPOLYLINE
5
137
100
AcDbEntity
8
0
100
AcDbPolyline
90
8
70
1
43
0.0
10
88.75
20
-73.674999999999983
42
-0.41421356237309503
10
88.250000000000014
20
-73.174999999999997
10
88.25
20
-60.174999999999997
42
-0.41421356237309503
10
88.75
20
-59.675000000000004
10
101.75
20
-59.674999999999997
42
-0.41421356237309503
10
102.25000000000001
20
-60.174999999999997
10
102.25000000000001
20
-73.174999999999997
42
-0.41421356237309503
10
101.75
20
-73.674999999999997
0
LWPOLYLINE
5
138
100
AcDbEntity
8
0
100
AcDbPolyline
90
8
70
1
43
0.0
10
310
20
-57.58750000000002
10
305.238
20
-57.58750000000002
10
305.238
20
-76.637500000000017
10
286.18799999999999
20
-76.637500000000017
10
286.18799999999999
20
-95.72499999999998
10
286.18799999999999
20
-76.637500000000017
10
305.238
20
-76.637500000000017
10
305.238
20
-57.58750000000002
0
LWPOLYLINE
5
139
100
AcDbEntity
8
0
100
AcDbPolyline
90
8
70
1
43
0.0
10
239.86250000000001
20
-21.574999999999992
42
-0.41421356237309503
10
240.36250000000001
20
-22.074999999999999
10
240.36250000000001
20
-35.075000000000003
42
-0.41421356237309503
10
239.86250000000001
20
-35.575000000000003
10
226.86250000000001
20
-35.574999999999974
42
-0.41421356237309503
10
226.36250000000004
20
-35.075000000000003
10
226.36250000000001
20
-22.074999999999999
42
-0.41421356237309503
10
226.86250000000001
20
-21.575000000000003
0
LINE
5
140
100
AcDbEntity
8
0
100
AcDbLine
10
202.35700000000003
20
-78.778000000000006
30
0
11
202.35700000000003
21
-92.777480000000011
31
0
0
LWPOLYLINE
5
141
100
AcDbEntity
8
0
100
AcDbPolyline
90
8
70
1
43
0.0
10
197.50000000000003
20
-73.174999999999997
42
-0.41421356237309503
10
197.00000000000003
20
-73.674999999999997
10
184.00000000000003
20
-73.675000000000011
42
-0.41421356237309503
10
183.5
20
-73.174999999999997
10
183.5
20
-60.174999999999997
42
-0.41421356237309503
10
184.00000000000003
20
-59.675000000000004
10
197.00000000000003
20
-59.675000000000026
42
-0.41421356237309503
10
197.5
20
-60.174999999999997
0
LWPOLYLINE
5
142
100
AcDbEntity
8
0
100
AcDbPolyline
90
8
70
1
43
0.0
10
192.73750000000004
20
-16.024999999999999
42
-0.41421356237309503
10
192.23750000000001
20
-16.524999999999999
10
179.23750000000001
20
-16.525000000000006
42
-0.41421356237309503
10
178.73750000000001
20
-16.024999999999999
10
178.73750000000001
20
-3.0249999999999999
42
-0.41421356237309503
10
179.23750000000001
20
-2.5249999999999999
10
192.23750000000001
20
-2.5249999999999928
42
-0.41421356237309503
10
192.73750000000004
20
-3.0249999999999999
0
LWPOLYLINE
5
143
100
AcDbEntity
8
0
100
AcDbPolyline
90
8
70
1
43
0.0
10
187.47499999999999
20
-40.624999999999993
42
-0.41421356237309503
10
187.97499999999999
20
-41.125
10
187.97499999999999
20
-54.125000000000007
42
-0.41421356237309503
10
187.47499999999999
20
-54.625
10
174.47500000000002
20
-54.625000000000014
42
-0.41421356237309503
10
173.97500000000002
20
-54.125000000000007
10
173.97500000000002
20
-41.125
42
-0.41421356237309503
10
174.47500000000002
20
-40.625
0
LINE
5
144
100
AcDbEntity
8
0
100
AcDbLine
10
23.8125
20
-95.249999999999986
30
0
11
47.625
21
-95.25
31
0
0
LINE
5
145
100
AcDbEntity
8
0
100
AcDbLine
10
-0.94999999999999996
20
0.94999999999999996
30
0
11
19.950000283122066
21
0.95000000000000639
31
0
0
LWPOLYLINE
5
146
100
AcDbEntity
8
0
100
AcDbPolyline
90
8
70
1
43
0.0
10
16.024999999999999
20
-40.625
10
3.0249999999999999
20
-40.625
42
0.41421356237309503
10
2.5249999999999999
20
-41.125
10
2.5249999999999999
20
-54.125000000000007
42
0.41421356237309503
10
3.0249999999999999
20
-54.625
10
16.024999999999999
20
-54.625
42
0.41421356237309503
10
16.524999999999999
20
-54.125000000000007
10
16.524999999999999
20
-41.125
42
0.41421356237309503
0
LWPOLYLINE
5
147
100
AcDbEntity
8
0
100
AcDbPolyline
90
8
70
1
43
0.0
10
31.100000000000001
20
-22.074999999999999
42
-0.41421356237309503
10
31.600000000000001
20
-21.575000000000003
10
44.600000000000001
20
-21.574999999999992
42
-0.41421356237309503
10
45.100000000000009
20
-22.074999999999999
10
45.099999999999994
20
-35.075000000000003
42
-0.41421356237309503
10
44.600000000000001
20
-35.575000000000003
10
31.600000000000001
20
-35.575000000000003
42
-0.41421356237309503
10
31.100000000000001
20
-35.075000000000003
0
LWPOLYLINE
5
148
100
AcDbEntity
8
0
100
AcDbPolyline
90
8
70
1
43
0.0
10
85.081249999999997
20
-78.724999999999994
42
-0.41421356237309503
10
85.581250000000011
20
-79.224999999999994
10
85.581249999999983
20
-92.224999999999994
42
-0.41421356237309503
10
85.081249999999997
20
-92.724999999999994
10
72.081249999999997
20
-92.725000000000009
42
-0.41421356237309503
10
71.581249999999997
20
-92.224999999999994
10
71.581249999999997
20
-79.224999999999994
42
-0.41421356237309503
10
72.081249999999997
20
-78.724999999999994
0
LWPOLYLINE
5
149
100
AcDbEntity
8
0
100
AcDbPolyline
90
8
70
1
43
0.0
10
48.200000000000003
20
-21.575000000000003
42
-0.41421356237309503
10
48.700000000000003
20
-22.074999999999999
10
48.70000000000001
20
-35.075000000000003
42
-0.41421356237309503
10
48.200000000000003
20
-35.575000000000003
10
47.200000000000003
20
-35.575000000000003
42
-0.41421356237309503
10
46.70000000000001
20
-35.075000000000003
10
46.70000000000001
20
-22.074999999999999
42
-0.41421356237309503
10
47.200000000000003
20
-21.575000000000003
0
LINE
5
150
100
AcDbEntity
8
0
100
AcDbLine
10
66.675000000000011
20
-76.199999999999989
30
0
11
63.650000000000006
21
-76.199999999999989
31
0
0
LWPOLYLINE
5
151
100
AcDbEntity
8
0
100
AcDbPolyline
90
14
70
1
43
0.0
10
287.48750000000001
20
-59.674999999999997
42
-0.41421356237309503
10
287.98750000000001
20
-60.174999999999997
10
287.98750000000001
20
-73.174999999999997
42
-0.41421356237309503
10
287.48750000000001
20
-73.674999999999997
10
272.54950000000002
20
-73.674999999999997
10
272.54950000000002
20
-75.174999999999997
42
-0.41421356237309503
10
272.04950000000002
20
-75.674999999999997
10
266.04950000000002
20
-75.674999999999969
42
-0.41421356237309503
10
265.54950000000008
20
-75.174999999999997
10
265.54950000000008
20
-73.674999999999997
10
264.96249999999998
20
-73.675000000000011
42
-0.41421356237309503
10
264.46249999999998
20
-73.174999999999997
10
264.46249999999998
20
-60.174999999999997
42
-0.41421356237309503
10
264.96249999999998
20
-59.675000000000004
0
LWPOLYLINE
5
152
100
AcDbEntity
8
0
100
AcDbPolyline
90
8
70
1
43
0.0
10
242.24375000000003
20
-78.724999999999994
42
-0.41421356237309503
10
242.74375000000003
20
-79.224999999999994
10
242.74375000000003
20
-92.224999999999994
42
-0.41421356237309503
10
242.24375000000003
20
-92.725000000000009
10
229.24375000000001
20
-92.725000000000009
42
-0.41421356237309503
10
228.74375000000001
20
-92.224999999999994
10
228.74375000000001
20
-79.224999999999994
42
-0.41421356237309503
10
229.24375000000001
20
-78.724999999999994
0
LWPOLYLINE
5
153
100
AcDbEntity
8
0
100
AcDbPolyline
90
8
70
1
43
0.0
10
50.181249999999991
20
-40.625
42
-0.41421356237309503
10
50.681249999999991
20
-41.125
10
50.681249999999991
20
-54.125000000000007
42
-0.41421356237309503
10
50.181249999999991
20
-54.625
10
49.181249999999999
20
-54.625
42
-0.41421356237309503
10
48.681249999999999
20
-54.125000000000007
10
48.681249999999999
20
-41.125
42
-0.41421356237309503
10
49.181249999999999
20
-40.625
0
LWPOLYLINE
5
154
100
AcDbEntity
8
0
100
AcDbPolyline
90
8
70
1
43
0.0
10
325.58749999999998
20
-78.4375
10
312.58749999999998
20
-78.437500000000014
42
-0.41421356237309503
10
312.08749999999998
20
-77.9375
10
312.08749999999998
20
-64.9375
42
-0.41421356237309503
10
312.58749999999998
20
-64.4375
10
325.58749999999998
20
-64.437500000000028
42
-0.41421356237309503
10
326.08749999999992
20
-64.9375
10
326.08749999999992
20
-77.9375
42
-0.41421356237309503
0
LWPOLYLINE
5
155
100
AcDbEntity
8
0
100
AcDbPolyline
90
8
70
1
43
0.0
10
326.08749999999992
20
-96.987500000000011
10
326.08749999999998
20
-83.987499999999997
42
0.41421356237309503
10
325.58749999999998
20
-83.487499999999983
10
312.58749999999998
20
-83.487499999999983
42
0.41421356237309503
10
312.08749999999998
20
-83.987499999999997
10
312.08749999999998
20
-96.987500000000011
42
0.41421356237309503
10
312.58749999999998
20
-97.487500000000011
10
325.58749999999998
20
-97.487500000000011
42
0.41421356237309503
0
LWPOLYLINE
5
156
100
AcDbEntity
8
0
100
AcDbPolyline
90
8
70
1
43
0.0
10
345.13750000000005
20
-96.987500000000011
42
-0.41421356237309503
10
344.63749999999999
20
-97.487500000000011
10
331.63749999999999
20
-97.487499999999983
42
-0.41421356237309503
10
331.13750000000005
20
-96.987500000000011
10
331.13750000000005
20
-83.987499999999997
42
-0.41421356237309503
10
331.63749999999999
20
-83.487500000000011
10
344.63749999999999
20
-83.487499999999955
42
-0.41421356237309503
10
345.13750000000005
20
-83.987499999999997
0
LWPOLYLINE
5
157
100
AcDbEntity
8
0
100
AcDbPolyline
90
8
70
1
43
0.0
10
26.981250000000003
20
-40.625
10
25.981249999999999
20
-40.625
42
0.41421356237309503
10
25.481250000000003
20
-41.125
10
25.481250000000003
20
-54.125000000000007
42
0.41421356237309503
10
25.981249999999999
20
-54.625
10
26.981250000000003
20
-54.625
42
0.41421356237309503
10
27.481249999999999
20
-54.125000000000007
10
27.481249999999999
20
-41.125
42
0.41421356237309503
0
LINE
5
158
100
AcDbEntity
8
0
100
AcDbLine
10
19.950000283122062
20
-95.249999999999986
30
0
11
19.950000283122062
21
-95.72499999999998
31
0
0
LWPOLYLINE
5
159
100
AcDbEntity
8
0
100
AcDbPolyline
90
8
70
1
43
0.0
10
16.024999999999999
20
-73.674999999999997
10
3.0249999999999999
20
-73.674999999999997
42
-0.41421356237309503
10
2.5249999999999999
20
-73.174999999999997
10
2.5250000000000017
20
-60.174999999999997
42
-0.41421356237309503
10
3.0249999999999999
20
-59.675000000000004
10
16.024999999999999
20
-59.675000000000004
42
-0.41421356237309503
10
16.524999999999999
20
-60.174999999999997
10
16.524999999999999
20
-73.174999999999997
42
-0.41421356237309503
0
LWPOLYLINE
5
160
100
AcDbEntity
8
0
100
AcDbPolyline
90
8
70
1
43
0.0
10
78.724999999999994
20
-41.125
42
-0.41421356237309503
10
79.224999999999994
20
-40.625
10
92.224999999999994
20
-40.624999999999993
42
-0.41421356237309503
10
92.725000000000009
20
-41.125
10
92.725000000000009
20
-54.125000000000007
42
-0.41421356237309503
10
92.224999999999994
20
-54.625
10
79.224999999999994
20
-54.625
42
-0.41421356237309503
10
78.724999999999994
20
-54.125000000000007
0
LWPOLYLINE
5
161
100
AcDbEntity
8
0
100
AcDbPolyline
90
14
70
1
43
0.0
10
301.77499999999998
20
-59.674999999999997
42
-0.41421356237309503
10
302.27499999999998
20
-60.174999999999997
10
302.27499999999998
20
-73.174999999999997
42
-0.41421356237309503
10
301.77499999999998
20
-73.674999999999997
10
296.4255
20
-73.674999999999997
10
296.42550000000006
20
-75.174999999999997
42
-0.41421356237309503
10
295.92550000000006
20
-75.674999999999997
10
289.9255
20
-75.675000000000011
42
-0.41421356237309503
10
289.4255
20
-75.174999999999997
10
289.4255
20
-73.674999999999997
10
288.77499999999998
20
-73.674999999999969
42
-0.41421356237309503
10
288.27499999999998
20
-73.174999999999997
10
288.27499999999998
20
-60.174999999999997
42
-0.41421356237309503
10
288.77499999999998
20
-59.675000000000004
0
LWPOLYLINE
5
162
100
AcDbEntity
8
0
100
AcDbPolyline
90
8
70
1
43
0.0
10
42.21875
20
-92.724999999999994
10
29.21875
20
-92.725000000000009
42
-0.41421356237309503
10
28.71875
20
-92.224999999999994
10
28.71875
20
-79.224999999999994
42
-0.41421356237309503
10
29.21875
20
-78.724999999999994
10
42.21875
20
-78.724999999999994
42
-0.41421356237309503
10
42.718750000000007
20
-79.224999999999994
10
42.718749999999986
20
-92.224999999999994
42
-0.41421356237309503
0
LWPOLYLINE
5
163
100
AcDbEntity
8
0
100
AcDbPolyline
90
8
70
1
43
0.0
10
309.08800000000002
20
-61.437500000000014
10
309.08800000000002
20
-80.487500000000011
10
290.03800000000001
20
-80.487500000000011
10
290.03800000000007
20
-100.4875
10
348.13800000000003
20
-100.4875
10
348.13800000000003
20
-80.487500000000011
10
329.08799999999997
20
-80.487500000000011
10
329.08799999999997
20
-61.437500000000014
0
LWPOLYLINE
5
164
100
AcDbEntity
8
0
100
AcDbPolyline
90
8
70
1
43
0.0
10
2.5249999999999999
20
-92.224999999999994
10
2.5250000000000017
20
-79.224999999999994
42
-0.41421356237309503
10
3.0249999999999999
20
-78.724999999999994
10
16.024999999999999
20
-78.724999999999994
42
-0.41421356237309503
10
16.524999999999999
20
-79.224999999999994
10
16.524999999999991
20
-92.224999999999994
42
-0.41421356237309503
10
16.024999999999999
20
-92.724999999999994
10
3.0249999999999999
20
-92.725000000000009
42
-0.41421356237309503
0
LWPOLYLINE
5
165
100
AcDbEntity
8
0
100
AcDbPolyline
90
21
70
1
43
0.0
10
63.650000000000006
20
-73.674999999999997
10
60.681750000000001
20
-73.674999999999997
10
60.681750000000001
20
-75.174999999999997
42
-0.41421356237309503
10
60.181750000000001
20
-75.674999999999997
10
54.181750000000008
20
-75.674999999999997
42
-0.41421356237309503
10
53.681750000000008
20
-75.174999999999997
10
53.681750000000008
20
-73.674999999999997
10
50.650000000000006
20
-73.674999999999997
10
36.805750000000003
20
-73.674999999999997
10
36.805750000000003
20
-75.174999999999997
42
-0.41421356237309503
10
36.305750000000003
20
-75.674999999999997
10
30.305750000000003
20
-75.675000000000011
42
-0.41421356237309503
10
29.80575
20
-75.174999999999997
10
29.80575
20
-73.674999999999997
10
29.21875
20
-73.674999999999997
42
-0.41421356237309503
10
28.71875
20
-73.174999999999997
10
28.71875
20
-60.174999999999997
42
-0.41421356237309503
10
29.21875
20
-59.675000000000004
10
63.650000000000006
20
-59.675000000000004
42
-0.41421356237309503
10
64.150000000000006
20
-60.174999999999997
10
64.150000000000006
20
-73.174999999999997
42
-0.41421356237309503
0
LWPOLYLINE
5
166
100
AcDbEntity
8
0
100
AcDbPolyline
90
8
70
1
43
0.0
10
245.41250000000002
20
-22.074999999999999
42
-0.41421356237309503
10
245.91250000000002
20
-21.575000000000003
10
258.91250000000002
20
-21.574999999999992
42
-0.41421356237309503
10
259.41250000000002
20
-22.074999999999999
10
259.41250000000002
20
-35.075000000000003
42
-0.41421356237309503
10
258.91250000000002
20
-35.575000000000003
10
245.91250000000002
20
-35.57500000000001
42
-0.41421356237309503
10
245.41250000000002
20
-35.075000000000003
0
LINE
5
167
100
AcDbEntity
8
0
100
AcDbLine
10
50.650000000000006
20
-76.199999999999989
30
0
11
63.650000000000006
21
-76.199999999999989
31
0
0
LINE
5
168
100
AcDbEntity
8
0
100
AcDbLine
10
0
20
-95.249999999999986
30
0
11
19.049999574199319
21
-95.249999999999986
31
0
0
LWPOLYLINE
5
169
100
AcDbEntity
8
0
100
AcDbPolyline
90
6
70
1
43
0.0
10
352.89999999999998
20
0.47499999999999998
10
313.85000000000002
20
0.4750000000000032
10
313.85000000000002
20
-57.58750000000002
10
332.93799999999999
20
-57.58750000000002
10
332.93799999999999
20
-76.637500000000017
10
352.89999999999998
20
-76.637500000000017
0
LWPOLYLINE
5
170
100
AcDbEntity
8
0
100
AcDbPolyline
90
8
70
1
43
0.0
10
59.387500000000003
20
-16.024999999999999
10
59.387500000000003
20
-3.0249999999999999
42
0.41421356237309503
10
58.88750000000001
20
-2.5249999999999999
10
45.887500000000003
20
-2.5249999999999999
42
0.41421356237309503
10
45.387500000000003
20
-3.0249999999999999
10
45.387500000000003
20
-16.024999999999999
42
0.41421356237309503
10
45.887500000000003
20
-16.524999999999999
10
58.88750000000001
20
-16.524999999999999
42
0.41421356237309503
0
LWPOLYLINE
5
171
100
AcDbEntity
8
0
100
AcDbPolyline
90
8
70
1
43
0.0
10
283.17500000000001
20
-35.57500000000001
42
-0.41421356237309503
10
282.67500000000001
20
-35.075000000000003
10
282.67500000000001
20
-22.074999999999999
42
-0.41421356237309503
10
283.17500000000001
20
-21.575000000000003
10
284.17500000000007
20
-21.574999999999992
42
-0.41421356237309503
10
284.67500000000007
20
-22.074999999999999
10
284.67500000000007
20
-35.075000000000003
42
-0.41421356237309503
10
284.17500000000007
20
-35.575000000000003
0
LINE
5
172
100
AcDbEntity
8
0
100
AcDbLine
10
304.76300000000003
20
-76.162500000000009
30
0
11
304.76300000000003
21
-57.112500000000011
31
0
0
LINE
5
173
100
AcDbEntity
8
0
100
AcDbLine
10
0
20
0
30
0
11
19.000000283122063
21
0
31
0
0
LINE
5
174
100
AcDbEntity
8
0
100
AcDbLine
10
50.650000000000006
20
-76.72499999999998
30
0
11
63.650000000000006
21
-76.72499999999998
31
0
0
LINE
5
175
100
AcDbEntity
8
0
100
AcDbLine
10
66.674999999999997
20
-95.249999999999986
30
0
11
66.674999999999997
21
-92.224999999999994
31
0
0
LWPOLYLINE
5
176
100
AcDbEntity
8
0
100
AcDbPolyline
90
8
70
1
43
0.0
10
46.981250000000003
20
-40.625
42
-0.41421356237309503
10
47.481250000000003
20
-41.125
10
47.481250000000003
20
-54.125000000000007
42
-0.41421356237309503
10
46.981250000000003
20
-54.625
10
29.21875
20
-54.625
42
-0.41421356237309503
10
28.71875
20
-54.125000000000007
10
28.71875
20
-41.125
42
-0.41421356237309503
10
29.21875
20
-40.625
0
LWPOLYLINE
5
177
100
AcDbEntity
8
0
100
AcDbPolyline
90
8
70
1
43
0.0
10
64.4375
20
-16.024999999999999
10
64.4375
20
-3.0249999999999999
42
-0.41421356237309503
10
64.9375
20
-2.5249999999999999
10
77.9375
20
-2.5250000000000017
42
-0.41421356237309503
10
78.4375
20
-3.0249999999999999
10
78.4375
20
-16.024999999999999
42
-0.41421356237309503
10
77.9375
20
-16.524999999999999
10
64.9375
20
-16.524999999999999
42
-0.41421356237309503
0
LINE
5
178
100
AcDbEntity
8
0
100
AcDbLine
10
304.76300000000003
20
-57.112500000000011
30
0
11
309.52499999999998
21
-57.112500000000011
31
0
0
LINE
5
179
100
AcDbEntity
8
0
100
AcDbLine
10
66.150000000000006
20
-79.224999999999994
30
0
11
66.150000000000006
21
-92.224999999999994
31
0
0
LWPOLYLINE
5
180
100
AcDbEntity
8
0
100
AcDbPolyline
90
8
70
1
43
0.0
10
278.46250000000003
20
-35.075000000000003
10
278.46249999999998
20
-22.074999999999999
42
0.41421356237309503
10
277.96249999999998
20
-21.575000000000003
10
264.96249999999998
20
-21.575000000000003
42
0.41421356237309503
10
264.46249999999998
20
-22.074999999999999
10
264.46249999999998
20
-35.075000000000003
42
0.41421356237309503
10
264.96249999999998
20
-35.575000000000003
10
277.96249999999998
20
-35.575000000000003
42
0.41421356237309503
0
LINE
5
181
100
AcDbEntity
8
0
100
AcDbLine
10
50.650000000000006
20
-76.199999999999989
30
0
11
47.624999999999993
21
-76.199999999999989
31
0
0
LINE
5
182
100
AcDbEntity
8
0
100
AcDbLine
10
19.000000283122063
20
-3.0250000000000199
30
0
11
19.049999999999997
21
-3.0249999999999999
31
0
0
LINE
5
183
100
AcDbEntity
8
0
100
AcDbLine
10
48.150000000000006
20
-79.224999999999994
30
0
11
48.150000000000006
21
-76.72499999999998
31
0
0
LINE
5
184
100
AcDbEntity
8
0
100
AcDbLine
10
19.049036286442899
20
-3.0250000000000004
30
0
11
19.050644677985815
21
0
31
0
0
LWPOLYLINE
5
185
100
AcDbEntity
8
0
100
AcDbPolyline
90
8
70
1
43
0.0
10
83.987499999999997
20
-16.524999999999991
42
-0.41421356237309503
10
83.487500000000011
20
-16.024999999999999
10
83.487499999999983
20
-3.0249999999999999
42
-0.41421356237309503
10
83.987499999999997
20
-2.5249999999999999
10
96.987500000000011
20
-2.5249999999999928
42
-0.41421356237309503
10
97.487500000000011
20
-3.0249999999999999
10
97.487500000000011
20
-16.024999999999999
42
-0.41421356237309503
10
96.987500000000011
20
-16.524999999999999
0
LWPOLYLINE
5
186
100
AcDbEntity
8
0
100
AcDbPolyline
90
8
70
1
43
0.0
10
280.84375
20
-92.224999999999994
10
280.84375
20
-79.224999999999994
42
0.41421356237309503
10
280.34375
20
-78.724999999999994
10
267.34375
20
-78.724999999999994
42
0.41421356237309503
10
266.84375
20
-79.224999999999994
10
266.84375
20
-92.224999999999994
42
0.41421356237309503
10
267.34375
20
-92.724999999999994
10
280.34375
20
-92.724999999999994
42
0.41421356237309503
0
LINE
5
187
100
AcDbEntity
8
0
100
AcDbLine
10
48.150000000000006
20
-92.224999999999994
30
0
11
48.150000000000006
21
-95.72499999999998
31
0
0
LINE
5
188
100
AcDbEntity
8
0
100
AcDbLine
10
47.625
20
-95.25
30
0
11
47.625
21
-92.224999999999994
31
0
0
LINE
5
189
100
AcDbEntity
8
0
100
AcDbLine
10
47.624999999999993
20
-79.224999999999994
30
0
11
47.625
21
-92.224999999999994
31
0
0
LINE
5
190
100
AcDbEntity
8
0
100
AcDbLine
10
0
20
-95.249999999999986
30
0
11
19.000000283122063
21
-95.249999999999986
31
0
0
LINE
5
191
100
AcDbEntity
8
0
100
AcDbLine
10
285.71300000000002
20
-76.162500000000009
30
0
11
304.76300000000003
21
-76.162500000000009
31
0
0
LWPOLYLINE
5
192
100
AcDbEntity
8
0
100
AcDbPolyline
90
8
70
1
43
0.0
10
306.53750000000002
20
-97.487500000000011
10
293.53750000000002
20
-97.487500000000011
42
-0.41421356237309503
10
293.03750000000002
20
-96.987500000000011
10
293.03750000000002
20
-83.987499999999997
42
-0.41421356237309503
10
293.53750000000002
20
-83.487499999999983
10
306.53750000000002
20
-83.487499999999983
42
-0.41421356237309503
10
307.03750000000002
20
-83.987499999999997
10
307.03750000000002
20
-96.987500000000011
42
-0.41421356237309503
0
LINE
5
193
100
AcDbEntity
8
0
100
AcDbLine
10
19.000000283122063
20
-95.249999999999986
30
0
11
0
21
-95.249999999999986
31
0
0
LINE
5
194
100
AcDbEntity
8
0
100
AcDbLine
10
19.000000283122063
20
-92.224999999999994
30
0
11
19.001608674664979
21
-92.224999999999994
31
0
0
LINE
5
195
100
AcDbEntity
8
0
100
AcDbLine
10
48.150000000000006
20
-76.72499999999998
30
0
11
50.650000000000006
21
-76.72499999999998
31
0
0
LINE
5
196
100
AcDbEntity
8
0
100
AcDbLine
10
47.624999999999993
20
-76.199999999999989
30
0
11
47.624999999999993
21
-79.224999999999994
31
0
0
LWPOLYLINE
5
197
100
AcDbEntity
8
0
100
AcDbPolyline
90
8
70
1
43
0.0
10
163.66250000000002
20
-21.574999999999992
42
-0.41421356237309503
10
164.16250000000002
20
-22.074999999999999
10
164.16250000000002
20
-35.075000000000003
42
-0.41421356237309503
10
163.66250000000002
20
-35.575000000000003
10
150.66249999999999
20
-35.57500000000001
42
-0.41421356237309503
10
150.16249999999999
20
-35.075000000000003
10
150.16249999999999
20
-22.074999999999999
42
-0.41421356237309503
10
150.66249999999999
20
-21.575000000000003
0
LINE
5
198
100
AcDbEntity
8
0
100
AcDbLine
10
285.71300000000002
20
-95.249999999999986
30
0
11
285.71300000000002
21
-76.162500000000009
31
0
0
LINE
5
199
100
AcDbEntity
8
0
100
AcDbLine
10
48.150000000000006
20
-79.224999999999994
30
0
11
48.150000000000006
21
-92.224999999999994
31
0
0
LINE
5
200
100
AcDbEntity
8
0
100
AcDbLine
10
314.32499999999999
20
-57.112500000000011
30
0
11
333.41299999999995
21
-57.112500000000011
31
0
0
LINE
5
201
100
AcDbEntity
8
0
100
AcDbLine
10
262.06875000000002
20
-95.249999999999986
30
0
11
262.06875000000002
21
-76.200000000000017
31
0
0
LINE
5
202
100
AcDbEntity
8
0
100
AcDbLine
10
66.675000000000011
20
-79.224999999999994
30
0
11
66.675000000000011
21
-76.199999999999989
31
0
0
LWPOLYLINE
5
203
100
AcDbEntity
8
0
100
AcDbPolyline
90
8
70
1
43
0.0
10
197.78749999999999
20
-3.0249999999999999
42
-0.41421356237309503
10
198.28749999999999
20
-2.5249999999999999
10
211.28749999999999
20
-2.5249999999999928
42
-0.41421356237309503
10
211.78750000000002
20
-3.0249999999999999
10
211.78750000000002
20
-16.024999999999999
42
-0.41421356237309503
10
211.28749999999999
20
-16.524999999999999
10
198.28749999999999
20
-16.525000000000006
42
-0.41421356237309503
10
197.78749999999999
20
-16.024999999999999
0
LWPOLYLINE
5
204
100
AcDbEntity
8
0
100
AcDbPolyline
90
8
70
1
43
0.0
10
260.36250000000001
20
-59.674999999999997
42
-0.41421356237309503
10
260.86250000000001
20
-60.174999999999997
10
260.86250000000001
20
-73.174999999999997
42
-0.41421356237309503
10
260.36250000000001
20
-73.674999999999997
10
259.36250000000001
20
-73.675000000000011
42
-0.41421356237309503
10
258.86250000000001
20
-73.174999999999997
10
258.86250000000001
20
-60.174999999999997
42
-0.41421356237309503
10
259.36250000000001
20
-59.675000000000004
0
LWPOLYLINE
5
205
100
AcDbEntity
8
0
100
AcDbPolyline
90
8
70
1
43
0.0
10
212.07499999999999
20
-41.125
42
-0.41421356237309503
10
212.57499999999999
20
-40.625
10
225.57500000000002
20
-40.624999999999993
42
-0.41421356237309503
10
226.07500000000002
20
-41.125
10
226.07500000000002
20
-54.125000000000007
42
-0.41421356237309503
10
225.57500000000002
20
-54.625
10
212.57499999999999
20
-54.625000000000014
42
-0.41421356237309503
10
212.07499999999999
20
-54.125000000000007
0
LINE
5
206
100
AcDbEntity
8
0
100
AcDbLine
10
66.675000000000011
20
-79.224999999999994
30
0
11
66.674999999999997
21
-92.224999999999994
31
0
0
LWPOLYLINE
5
207
100
AcDbEntity
8
0
100
AcDbPolyline
90
8
70
1
43
0.0
10
217.33750000000001
20
-16.525000000000006
42
-0.41421356237309503
10
216.83750000000001
20
-16.024999999999999
10
216.83750000000001
20
-3.0249999999999999
42
-0.41421356237309503
10
217.33750000000001
20
-2.5249999999999999
10
230.33750000000001
20
-2.5249999999999928
42
-0.41421356237309503
10
230.83750000000003
20
-3.0249999999999999
10
230.83750000000003
20
-16.024999999999999
42
-0.41421356237309503
10
230.33750000000001
20
-16.525000000000002
0
LINE
5
208
100
AcDbEntity
8
0
100
AcDbLine
10
247.51875000000007
20
-76.200000000000017
30
0
11
247.51875000000007
21
-95.249999999999986
31
0
0
LWPOLYLINE
5
209
100
AcDbEntity
8
0
100
AcDbPolyline
90
8
70
1
43
0.0
10
145.40000000000001
20
-73.174999999999997
10
145.40000000000003
20
-60.174999999999997
42
-0.41421356237309503
10
145.90000000000001
20
-59.675000000000004
10
158.90000000000001
20
-59.674999999999997
42
-0.41421356237309503
10
159.40000000000001
20
-60.174999999999997
10
159.40000000000001
20
-73.174999999999997
42
-0.41421356237309503
10
158.90000000000001
20
-73.674999999999997
10
145.90000000000001
20
-73.675000000000011
42
-0.41421356237309503
0
LINE
5
210
100
AcDbEntity
8
0
100
AcDbLine
10
261.5437500000001
20
-95.72499999999998
30
0
11
261.54375000000005
21
-76.725000000000009
31
0
0
LINE
5
211
100
AcDbEntity
8
0
100
AcDbLine
10
188.357
20
-92.777480000000011
30
0
11
202.35700000000003
21
-92.777480000000011
31
0
0
LINE
5
212
100
AcDbEntity
8
0
100
AcDbLine
10
66.150000000000006
20
-76.72499999999998
30
0
11
66.150000000000006
21
-79.224999999999994
31
0
0
LINE
5
213
100
AcDbEntity
8
0
100
AcDbLine
10
333.41299999999995
20
-57.112500000000011
30
0
11
333.41299999999995
21
-76.162500000000009
31
0
0
LINE
5
214
100
AcDbEntity
8
0
100
AcDbLine
10
248.04375000000005
20
-76.725000000000009
30
0
11
248.04375000000007
21
-95.72499999999998
31
0
0
LWPOLYLINE
5
215
100
AcDbEntity
8
0
100
AcDbPolyline
90
8
70
1
43
0.0
10
135.58750000000001
20
-92.224999999999994
10
135.58750000000001
20
-79.224999999999994
42
0.41421356237309503
10
135.08750000000001
20
-78.724999999999994
10
122.08750000000002
20
-78.724999999999994
42
0.41421356237309503
10
121.58750000000001
20
-79.224999999999994
10
121.58750000000001
20
-92.224999999999994
42
0.41421356237309503
10
122.08750000000002
20
-92.725000000000009
10
135.08750000000001
20
-92.724999999999994
42
0.41421356237309503
0
LWPOLYLINE
5
216
100
AcDbEntity
8
0
100
AcDbPolyline
90
4
70
1
43
0.0
10
180.08300000000003
20
-91.307199999999995
10
180.08300000000003
20
-77.807880000000011
10
172.50800000000001
20
-77.807880000000011
10
172.50800000000001
20
-91.307199999999995
0
LWPOLYLINE
5
217
100
AcDbEntity
8
0
100
AcDbPolyline
90
4
70
1
43
0.0
10
103.483
20
-91.307199999999995
10
103.483
20
-77.807880000000011
10
95.908000000000001
20
-77.807880000000011
10
95.908000000000001
20
-91.307199999999995
0
LWPOLYLINE
5
218
100
AcDbEntity
8
0
100
AcDbPolyline
90
8
70
1
43
0.0
10
168.92500000000001
20
-54.125000000000007
42
-0.41421356237309503
10
168.42500000000001
20
-54.625
10
155.42500000000001
20
-54.625000000000014
42
-0.41421356237309503
10
154.92500000000001
20
-54.125000000000007
10
154.92500000000004
20
-41.125
42
-0.41421356237309503
10
155.42500000000001
20
-40.625
10
168.42500000000001
20
-40.624999999999993
42
-0.41421356237309503
10
168.92500000000001
20
-41.125
0
LWPOLYLINE
5
219
100
AcDbEntity
8
0
100
AcDbPolyline
90
8
70
1
43
0.0
10
154.63750000000002
20
-16.024999999999999
10
154.63750000000002
20
-3.0249999999999999
42
0.41421356237309503
10
154.13749999999999
20
-2.5249999999999999
10
141.13749999999999
20
-2.5249999999999999
42
0.41421356237309503
10
140.63749999999999
20
-3.0249999999999999
10
140.63749999999999
20
-16.024999999999999
42
0.41421356237309503
10
141.13749999999999
20
-16.525000000000002
10
154.13749999999999
20
-16.524999999999999
42
0.41421356237309503
0
LWPOLYLINE
5
220
100
AcDbEntity
8
0
100
AcDbPolyline
90
8
70
1
43
0.0
10
111.77500000000002
20
-54.125000000000007
42
-0.41421356237309503
10
111.27500000000001
20
-54.625
10
98.275000000000006
20
-54.624999999999993
42
-0.41421356237309503
10
97.77500000000002
20
-54.125000000000007
10
97.775000000000006
20
-41.125
42
-0.41421356237309503
10
98.275000000000006
20
-40.625
10
111.27500000000001
20
-40.624999999999993
42
-0.41421356237309503
10
111.77500000000002
20
-41.125
0
LWPOLYLINE
5
221
100
AcDbEntity
8
0
100
AcDbPolyline
90
8
70
1
43
0.0
10
159.6875
20
-16.024999999999999
10
159.6875
20
-3.0249999999999999
42
-0.41421356237309503
10
160.1875
20
-2.5249999999999999
10
173.1875
20
-2.5249999999999928
42
-0.41421356237309503
10
173.68750000000003
20
-3.0249999999999999
10
173.68750000000003
20
-16.024999999999999
42
-0.41421356237309503
10
173.1875
20
-16.525000000000002
10
160.1875
20
-16.525000000000006
42
-0.41421356237309503
0
LWPOLYLINE
5
222
100
AcDbEntity
8
0
100
AcDbPolyline
90
8
70
1
43
0.0
10
169.21250000000001
20
-22.074999999999999
42
-0.41421356237309503
10
169.71250000000001
20
-21.575000000000003
10
182.71250000000003
20
-21.574999999999992
42
-0.41421356237309503
10
183.21250000000003
20
-22.074999999999999
10
183.21250000000003
20
-35.075000000000003
42
-0.41421356237309503
10
182.71250000000003
20
-35.575000000000003
10
169.71250000000001
20
-35.57500000000001
42
-0.41421356237309503
10
169.21250000000001
20
-35.075000000000003
0
LINE
5
223
100
AcDbEntity
8
0
100
AcDbLine
10
0
20
0
30
0
11
0
21
-95.249999999999986
31
0
0
LWPOLYLINE
5
224
100
AcDbEntity
8
0
100
AcDbPolyline
90
8
70
1
43
0.0
10
135.58750000000001
20
-16.024999999999999
42
-0.41421356237309503
10
135.08750000000001
20
-16.524999999999999
10
122.08750000000002
20
-16.525000000000006
42
-0.41421356237309503
10
121.58750000000001
20
-16.024999999999999
10
121.58750000000001
20
-3.0249999999999999
42
-0.41421356237309503
10
122.08750000000002
20
-2.5249999999999999
10
135.08750000000001
20
-2.5249999999999928
42
-0.41421356237309503
10
135.58750000000001
20
-3.0249999999999999
0
LWPOLYLINE
5
225
100
AcDbEntity
8
0
100
AcDbPolyline
90
8
70
1
43
0.0
10
130.32499999999999
20
-54.625
10
117.32500000000002
20
-54.625000000000014
42
-0.41421356237309503
10
116.82500000000002
20
-54.125000000000007
10
116.82500000000002
20
-41.125
42
-0.41421356237309503
10
117.32500000000002
20
-40.625
10
130.32499999999999
20
-40.624999999999993
42
-0.41421356237309503
10
130.82499999999999
20
-41.125
10
130.82499999999999
20
-54.125000000000007
42
-0.41421356237309503
0
LWPOLYLINE
5
226
100
AcDbEntity
8
0
100
AcDbPolyline
90
8
70
1
43
0.0
10
121.30000000000001
20
-73.174999999999997
10
121.30000000000001
20
-60.174999999999997
42
0.41421356237309503
10
120.8
20
-59.675000000000004
10
107.80000000000001
20
-59.675000000000004
42
0.41421356237309503
10
107.30000000000001
20
-60.174999999999997
10
107.30000000000001
20
-73.174999999999997
42
0.41421356237309503
10
107.80000000000001
20
-73.674999999999997
10
120.8
20
-73.674999999999997
42
0.41421356237309503
0
LWPOLYLINE
5
227
100
AcDbEntity
8
0
100
AcDbPolyline
90
8
70
1
43
0.0
10
93.512500000000003
20
-35.574999999999989
42
-0.41421356237309503
10
93.012500000000017
20
-35.075000000000003
10
93.012499999999989
20
-22.074999999999999
42
-0.41421356237309503
10
93.512500000000003
20
-21.575000000000003
10
106.51250000000002
20
-21.574999999999992
42
-0.41421356237309503
10
107.01250000000002
20
-22.074999999999999
10
107.01250000000002
20
-35.075000000000003
42
-0.41421356237309503
10
106.51250000000002
20
-35.575000000000003
0
LWPOLYLINE
5
228
100
AcDbEntity
8
0
100
AcDbPolyline
90
8
70
1
43
0.0
10
149.375
20
-40.624999999999993
42
-0.41421356237309503
10
149.875
20
-41.125
10
149.875
20
-54.125000000000007
42
-0.41421356237309503
10
149.375
20
-54.625
10
136.375
20
-54.625000000000014
42
-0.41421356237309503
10
135.875
20
-54.125000000000007
10
135.87500000000003
20
-41.125
42
-0.41421356237309503
10
136.375
20
-40.625
0
LWPOLYLINE
5
229
100
AcDbEntity
8
0
100
AcDbPolyline
90
8
70
1
43
0.0
10
126.85000000000001
20
-73.675000000000011
42
-0.41421356237309503
10
126.34999999999999
20
-73.174999999999997
10
126.35000000000002
20
-60.174999999999997
42
-0.41421356237309503
10
126.85000000000001
20
-59.675000000000004
10
139.84999999999999
20
-59.674999999999997
42
-0.41421356237309503
10
140.34999999999999
20
-60.174999999999997
10
140.34999999999999
20
-73.174999999999997
42
-0.41421356237309503
10
139.84999999999999
20
-73.674999999999997
0
LWPOLYLINE
5
230
100
AcDbEntity
8
0
100
AcDbPolyline
90
8
70
1
43
0.0
10
153.50800000000001
20
-77.807880000000011
10
153.50800000000001
20
-78.778000000000006
10
150.25700000000001
20
-78.778000000000006
10
150.25700000000001
20
-92.777480000000011
10
164.25700000000003
20
-92.777480000000011
10
164.25700000000003
20
-78.778000000000006
10
161.083
20
-78.778000000000006
10
161.083
20
-77.807880000000011
0
LWPOLYLINE
5
231
100
AcDbEntity
8
0
100
AcDbPolyline
90
8
70
1
43
0.0
10
178.44999999999999
20
-73.174999999999997
42
-0.41421356237309503
10
177.94999999999999
20
-73.674999999999997
10
164.95000000000002
20
-73.675000000000011
42
-0.41421356237309503
10
164.44999999999999
20
-73.174999999999997
10
164.44999999999999
20
-60.174999999999997
42
-0.41421356237309503
10
164.95000000000002
20
-59.675000000000004
10
177.94999999999999
20
-59.674999999999997
42
-0.41421356237309503
10
178.44999999999999
20
-60.174999999999997
0
LINE
5
232
100
AcDbEntity
8
0
100
AcDbLine
10
261.54375000000005
20
-76.725000000000009
30
0
11
248.04375000000005
21
-76.725000000000009
31
0
0
LWPOLYLINE
5
233
100
AcDbEntity
8
0
100
AcDbPolyline
90
8
70
1
43
0.0
10
116.53750000000001
20
-16.024999999999999
10
116.53750000000001
20
-3.0249999999999999
42
0.41421356237309503
10
116.03749999999999
20
-2.5249999999999999
10
103.03750000000001
20
-2.5249999999999999
42
0.41421356237309503
10
102.53749999999999
20
-3.0249999999999999
10
102.53749999999999
20
-16.024999999999999
42
0.41421356237309503
10
103.03750000000001
20
-16.524999999999999
10
116.03749999999999
20
-16.524999999999999
42
0.41421356237309503
0
LWPOLYLINE
5
234
100
AcDbEntity
8
0
100
AcDbPolyline
90
8
70
1
43
0.0
10
126.06250000000001
20
-35.075000000000003
42
-0.41421356237309503
10
125.5625
20
-35.575000000000003
10
112.56250000000001
20
-35.57500000000001
42
-0.41421356237309503
10
112.0625
20
-35.075000000000003
10
112.0625
20
-22.074999999999999
42
-0.41421356237309503
10
112.56250000000001
20
-21.575000000000003
10
125.5625
20
-21.574999999999992
42
-0.41421356237309503
10
126.06250000000001
20
-22.074999999999999
0
LINE
5
235
100
AcDbEntity
8
0
100
AcDbLine
10
261.54375000000005
20
-76.725000000000009
30
0
11
248.04375000000005
21
-94.72499999999998
31
0
0
LINE
5
236
100
AcDbEntity
8
0
100
AcDbLine
10
262.06875000000002
20
-76.200000000000017
30
0
11
247.51875000000007
21
-76.200000000000017
31
0
0
LINE
5
237
100
AcDbEntity
8
0
100
AcDbLine
10
309.52499999999998
20
5.8170722959499284e-17
30
0
11
309.52499999999998
21
-57.112500000000011
31
0
0
LINE
5
238
100
AcDbEntity
8
0
100
AcDbLine
10
23.337500000000002
20
0.47499999999999998
30
0
11
23.337499999999984
21
-95.72499999999998
31
0
0
LINE
5
239
100
AcDbEntity
8
0
100
AcDbLine
10
-0.47499999999999998
20
0.47499999999999998
30
0
11
-0.47499999999999998
21
-95.72499999999998
31
0
0
LINE
5
240
100
AcDbEntity
8
0
100
AcDbLine
10
63.650000000000006
20
-76.72499999999998
30
0
11
66.150000000000006
21
-76.72499999999998
31
0
0
LINE
5
241
100
AcDbEntity
8
0
100
AcDbLine
10
248.04375000000005
20
-76.725000000000009
30
0
11
261.54375000000005
21
-94.72499999999998
31
0
0
LINE
5
242
100
AcDbEntity
8
0
100
AcDbLine
10
313.85000000000002
20
5.8170722959499284e-17
30
0
11
313.85000000000002
21
-57.112500000000011
31
0
0
LWPOLYLINE
5
243
100
AcDbEntity
8
0
100
AcDbPolyline
90
8
70
1
43
0.0
10
145.11250000000001
20
-35.075000000000003
42
-0.41421356237309503
10
144.61250000000001
20
-35.575000000000003
10
131.61250000000001
20
-35.57500000000001
42
-0.41421356237309503
10
131.11250000000001
20
-35.075000000000003
10
131.11250000000001
20
-22.074999999999999
42
-0.41421356237309503
10
131.61250000000001
20
-21.575000000000003
10
144.61250000000001
20
-21.574999999999992
42
-0.41421356237309503
10
145.11250000000001
20
-22.074999999999999
0
LWPOLYLINE
5
244
100
AcDbEntity
8
0
100
AcDbPolyline
90
4
70
1
43
0.0
10
211.03200000000001
20
-91.307199999999995
10
211.03200000000001
20
-77.807880000000011
10
218.60700000000003
20
-77.807880000000011
10
218.60700000000003
20
-91.307199999999995
0
LINE
5
245
100
AcDbEntity
8
0
100
AcDbLine
10
-0.94999999999999996
20
0.94999999999999996
30
0
11
-0.94999999999999996
21
-96.257913748394685
31
0
0
LINE
5
246
100
AcDbEntity
8
0
100
AcDbLine
10
248.04375000000007
20
-95.249999999999986
30
0
11
262.06875000000002
21
-95.249999999999986
31
0
0
LINE
5
247
100
AcDbEntity
8
0
100
AcDbLine
10
352.42500000000001
20
0
30
0
11
352.42500000000001
21
-76.162500000000009
31
0
0
LINE
5
248
100
AcDbEntity
8
0
100
AcDbLine
10
310
20
0.47499999999999998
30
0
11
310
21
-57.112500000000011
31
0
0
LINE
5
249
100
AcDbEntity
8
0
100
AcDbLine
10
19.950000283122062
20
-96.257913748394685
30
0
11
19.950000283122066
21
0.95000000000000639
31
0
0
LINE
5
250
100
AcDbEntity
8
0
100
AcDbLine
10
19.049999574199319
20
-95.249999999999986
30
0
11
19.04999999999999
21
0
31
0
0
LINE
5
251
100
AcDbEntity
8
0
100
AcDbLine
10
310
20
-0.47499999999999992
30
0
11
310
21
-57.58750000000002
31
0
0
LINE
5
252
100
AcDbEntity
8
0
100
AcDbLine
10
310
20
-57.58750000000002
30
0
11
310
21
5.8170722959499284e-17
31
0
0
LINE
5
253
100
AcDbEntity
8
0
100
AcDbLine
10
66.674999999999997
20
-95.249999999999986
30
0
11
248.04375000000007
21
-95.249999999999986
31
0
0
LINE
5
254
100
AcDbEntity
8
0
100
AcDbLine
10
23.337500000000002
20
0.47499999999999998
30
0
11
310
21
0.47499999999999998
31
0
0
LINE
5
255
100
AcDbEntity
8
0
100
AcDbLine
10
262.06875000000002
20
-95.249999999999986
30
0
11
285.71300000000002
21
-95.249999999999986
31
0
0
LINE
5
256
100
AcDbEntity
8
0
100
AcDbLine
10
314.32499999999999
20
0
30
0
11
314.32499999999999
21
-57.112500000000011
31
0
0
LINE
5
257
100
AcDbEntity
8
0
100
AcDbLine
10
19.475000283122064
20
-95.72499999999998
30
0
11
19.475000283122064
21
0.47499999999999998
31
0
0
LINE
5
258
100
AcDbEntity
8
0
100
AcDbLine
10
23.8125
20
0
30
0
11
23.8125
21
-95.249999999999986
31
0
0
LINE
5
259
100
AcDbEntity
8
0
100
AcDbLine
10
23.8125
20
0
30
0
11
309.52499999999998
21
5.8170722959499284e-17
31
0
0
LINE
5
260
100
AcDbEntity
8
0
100
AcDbLine
10
286.18799999999999
20
-95.72499999999998
30
0
11
-0.94999999999999996
21
-95.72499999999998
31
0
0
LINE
5
261
100
AcDbEntity
8
0
100
AcDbLine
10
333.41299999999995
20
-76.162500000000009
30
0
11
352.46299999999997
21
-76.162500000000009
31
0
0
LWPOLYLINE
5
262
100
AcDbEntity
8
0
100
AcDbPolyline
90
4
70
1
43
0.0
10
352.89999999999998
20
-100.48750000000001
10
352.89999999999998
20
0.47500000000000098
10
-0.47500000000000098
20
0.47499999999999432
10
-0.47499999999999432
20
-100.48750000000001
0
LWPOLYLINE
5
263
100
AcDbEntity
8
0
100
AcDbPolyline
90
8
70
1
43
0.0
10
22.599999999999998
20
-35.075000000000003
42
-0.41421356237309503
10
22.100000000000001
20
-35.575000000000003
10
21.099999999999998
20
-35.575000000000003
42
-0.41421356237309503
10
20.600000000000001
20
-35.075000000000003
10
20.600000000000001
20
-22.074999999999999
42
-0.41421356237309503
10
21.099999999999998
20
-21.575000000000003
10
22.100000000000001
20
-21.575000000000003
42
-0.41421356237309503
10
22.599999999999998
20
-22.074999999999999
0
LWPOLYLINE
5
264
100
AcDbEntity
8
0
100
AcDbPolyline
90
8
70
1
43
0.0
10
22.599999999999998
20
-16.075000000000003
42
-0.41421356237309503
10
22.100000000000001
20
-16.574999999999999
10
21.099999999999998
20
-16.574999999999999
42
-0.41421356237309503
10
20.600000000000001
20
-16.075000000000003
10
20.600000000000001
20
-3.0749999999999988
42
-0.41421356237309503
10
21.099999999999998
20
-2.5750000000000006
10
22.100000000000001
20
-2.5750000000000006
42
-0.41421356237309503
10
22.599999999999998
20
-3.0749999999999988
0
LWPOLYLINE
5
265
100
AcDbEntity
8
0
100
AcDbPolyline
90
8
70
1
43
0.0
10
22.599999999999998
20
-54.075000000000003
42
-0.41421356237309503
10
22.100000000000001
20
-54.575000000000003
10
21.099999999999998
20
-54.575000000000003
42
-0.41421356237309503
10
20.600000000000001
20
-54.075000000000003
10
20.600000000000009
20
-41.075000000000003
42
-0.41421356237309503
10
21.099999999999998
20
-40.57500000000001
10
22.100000000000001
20
-40.575000000000003
42
-0.41421356237309503
10
22.599999999999998
20
-41.075000000000003
0
LWPOLYLINE
5
266
100
AcDbEntity
8
0
100
AcDbPolyline
90
8
70
1
43
0.0
10
22.599999999999998
20
-73.075000000000017
42
-0.41421356237309503
10
22.100000000000001
20
-73.575000000000003
10
21.099999999999998
20
-73.575000000000003
42
-0.41421356237309503
10
20.600000000000001
20
-73.075000000000017
10
20.600000000000009
20
-60.075000000000003
42
-0.41421356237309503
10
21.099999999999998
20
-59.575000000000017
10
22.100000000000001
20
-59.575000000000003
42
-0.41421356237309503
10
22.599999999999998
20
-60.075000000000003
0
LWPOLYLINE
5
267
100
AcDbEntity
8
0
100
AcDbPolyline
90
8
70
1
43
0.0
10
22.600000000000009
20
-92.175000000000011
42
-0.41421356237309503
10
22.100000000000001
20
-92.675000000000011
10
21.099999999999998
20
-92.675000000000011
42
-0.41421356237309503
10
20.600000000000001
20
-92.175000000000011
10
20.600000000000009
20
-79.175000000000011
42
-0.41421356237309503
10
21.099999999999998
20
-78.675000000000011
10
22.100000000000001
20
-78.675000000000011
42
-0.41421356237309503
10
22.599999999999998
20
-79.175000000000011
0
LWPOLYLINE
5
268
100
AcDbEntity
8
0
100
AcDbPolyline
90
8
70
1
43
0.0
10
312.90000000000009
20
-16.075000000000003
42
-0.41421356237309503
10
312.40000000000003
20
-16.574999999999999
10
311.40000000000003
20
-16.57500000000001
42
-0.41421356237309503
10
310.90000000000003
20
-16.075000000000003
10
310.90000000000003
20
-3.0749999999999988
42
-0.41421356237309503
10
311.40000000000003
20
-2.5750000000000006
10
312.40000000000003
20
-2.5749999999999917
42
-0.41421356237309503
10
312.90000000000009
20
-3.0749999999999988
0
LWPOLYLINE
5
269
100
AcDbEntity
8
0
100
AcDbPolyline
90
8
70
1
43
0.0
10
312.90000000000009
20
-35.075000000000003
42
-0.41421356237309503
10
312.40000000000003
20
-35.575000000000003
10
311.40000000000003
20
-35.57500000000001
42
-0.41421356237309503
10
310.90000000000003
20
-35.075000000000003
10
310.90000000000003
20
-22.074999999999999
42
-0.41421356237309503
10
311.40000000000003
20
-21.575000000000003
10
312.40000000000003
20
-21.574999999999992
42
-0.41421356237309503
10
312.90000000000009
20
-22.074999999999999
0
LWPOLYLINE
5
270
100
AcDbEntity
8
0
100
AcDbPolyline
90
8
70
1
43
0.0
10
312.90000000000009
20
-54.075000000000003
42
-0.41421356237309503
10
312.40000000000003
20
-54.575000000000003
10
311.40000000000003
20
-54.575000000000017
42
-0.41421356237309503
10
310.90000000000003
20
-54.075000000000003
10
310.90000000000003
20
-41.075000000000003
42
-0.41421356237309503
10
311.40000000000003
20
-40.57500000000001
10
312.40000000000003
20
-40.574999999999989
42
-0.41421356237309503
10
312.90000000000009
20
-41.075000000000003
0
LWPOLYLINE
5
271
100
AcDbEntity
8
0
100
AcDbPolyline
90
8
70
1
43
0.0
10
307.875
20
-54.075000000000003
42
-0.41421356237309503
10
307.375
20
-54.575000000000017
10
306.375
20
-54.575000000000017
42
-0.41421356237309503
10
305.875
20
-54.075000000000003
10
305.87500000000006
20
-41.075000000000003
42
-0.41421356237309503
10
306.375
20
-40.57500000000001
10
307.375
20
-40.574999999999989
42
-0.41421356237309503
10
307.875
20
-41.075000000000003
0
LWPOLYLINE
5
272
100
AcDbEntity
8
0
100
AcDbPolyline
90
8
70
1
43
0.0
10
22.600000000000009
20
-92.175000000000011
42
-0.41421356237309503
10
22.100000000000001
20
-92.675000000000011
10
21.099999999999998
20
-92.675000000000011
42
-0.41421356237309503
10
20.600000000000001
20
-92.175000000000011
10
20.600000000000009
20
-79.175000000000011
42
-0.41421356237309503
10
21.099999999999998
20
-78.675000000000011
10
22.100000000000001
20
-78.675000000000011
42
-0.41421356237309503
10
22.599999999999998
20
-79.175000000000011
0
LWPOLYLINE
5
273
100
AcDbEntity
8
0
100
AcDbPolyline
90
8
70
1
43
0.0
10
307.875
20
-75.575000000000017
42
-0.41421356237309503
10
307.375
20
-76.075000000000017
10
306.375
20
-76.075000000000017
42
-0.41421356237309503
10
305.875
20
-75.575000000000017
10
305.87500000000006
20
-62.575000000000003
42
-0.41421356237309503
10
306.375
20
-62.075000000000017
10
307.375
20
-62.074999999999996
42
-0.41421356237309503
10
307.875
20
-62.575000000000003
0
LWPOLYLINE
5
274
100
AcDbEntity
8
0
100
AcDbPolyline
90
8
70
1
43
0.0
10
289.07500000000005
20
-95.075000000000003
42
-0.41421356237309503
10
288.57500000000005
20
-95.575000000000017
10
287.57500000000005
20
-95.575000000000017
42
-0.41421356237309503
10
287.07500000000005
20
-95.075000000000003
10
287.07500000000005
20
-82.074999999999989
42
-0.41421356237309503
10
287.57500000000005
20
-81.575000000000003
10
288.57500000000005
20
-81.574999999999989
42
-0.41421356237309503
10
289.07500000000005
20
-82.074999999999989
0
LWPOLYLINE
5
275
100
AcDbEntity
8
0
100
AcDbPolyline
90
8
70
1
43
0.0
10
304.07500000000005
20
-77.574999999999918
42
-0.41421356237309503
10
304.57500000000005
20
-78.07499999999996
10
304.57500000000005
20
-79.074999999999932
42
-0.41421356237309503
10
304.07500000000005
20
-79.574999999999946
10
291.07500000000005
20
-79.574999999999946
42
-0.41421356237309503
10
290.57500000000005
20
-79.074999999999932
10
290.57500000000005
20
-78.07499999999996
42
-0.41421356237309503
10
291.07500000000005
20
-77.574999999999946
0
LWPOLYLINE
5
276
100
AcDbEntity
8
0
100
AcDbPolyline
90
8
70
1
43
0.0
10
326.0750000000001
20
-58.974999999999952
10
326.07500000000005
20
-59.974999999999937
42
-0.41421356237309503
10
325.57500000000005
20
-60.474999999999937
10
312.57500000000005
20
-60.474999999999937
42
-0.41421356237309503
10
312.07500000000005
20
-59.974999999999937
10
312.07500000000005
20
-58.974999999999952
42
-0.41421356237309503
10
312.57500000000005
20
-58.474999999999952
10
325.57500000000005
20
-58.474999999999909
42
-0.41421356237309503
0
LWPOLYLINE
5
277
100
AcDbEntity
8
0
100
AcDbPolyline
90
8
70
1
43
0.0
10
347.07500000000005
20
-77.574999999999918
42
-0.41421356237309503
10
347.57500000000005
20
-78.07499999999996
10
347.57500000000005
20
-79.074999999999932
42
-0.41421356237309503
10
347.07500000000005
20
-79.574999999999946
10
334.07500000000005
20
-79.574999999999974
42
-0.41421356237309503
10
333.57500000000005
20
-79.074999999999932
10
333.57500000000005
20
-78.07499999999996
42
-0.41421356237309503
10
334.07500000000005
20
-77.574999999999946
0
LWPOLYLINE
5
278
100
AcDbEntity
8
0
100
AcDbPolyline
90
8
70
1
43
0.0
10
331.875
20
-75.575000000000017
42
-0.41421356237309503
10
331.375
20
-76.075000000000017
10
330.37500000000011
20
-76.075000000000045
42
-0.41421356237309503
10
329.87500000000006
20
-75.575000000000017
10
329.87500000000011
20
-62.575000000000003
42
-0.41421356237309503
10
330.37500000000011
20
-62.075000000000017
10
331.375
20
-62.075000000000031
42
-0.41421356237309503
10
331.875
20
-62.575000000000003
0
LWPOLYLINE
5
279
100
AcDbEntity
8
0
100
AcDbPolyline
90
8
70
1
43
0.0
10
52.600000000000009
20
-92.175000000000011
42
-0.41421356237309503
10
52.100000000000001
20
-92.675000000000011
10
51.099999999999994
20
-92.674999999999997
42
-0.41421356237309503
10
50.600000000000009
20
-92.175000000000011
10
50.600000000000009
20
-79.175000000000011
42
-0.41421356237309503
10
51.099999999999994
20
-78.675000000000011
10
52.100000000000001
20
-78.675000000000011
42
-0.41421356237309503
10
52.599999999999994
20
-79.175000000000011
0
LWPOLYLINE
5
280
100
AcDbEntity
8
0
100
AcDbPolyline
90
8
70
1
43
0.0
10
63.600000000000009
20
-92.175000000000011
42
-0.41421356237309503
10
63.100000000000009
20
-92.675000000000011
10
62.100000000000009
20
-92.675000000000011
42
-0.41421356237309503
10
61.600000000000001
20
-92.175000000000011
10
61.600000000000023
20
-79.175000000000011
42
-0.41421356237309503
10
62.100000000000009
20
-78.675000000000011
10
63.100000000000009
20
-78.675000000000011
42
-0.41421356237309503
10
63.600000000000001
20
-79.175000000000011
0
LWPOLYLINE
5
281
100
AcDbEntity
8
0
100
AcDbPolyline
90
8
70
1
43
0.0
10
112.60000000000002
20
-92.175000000000011
42
-0.41421356237309503
10
112.10000000000001
20
-92.675000000000011
10
111.09999999999999
20
-92.674999999999997
42
-0.41421356237309503
10
110.60000000000001
20
-92.175000000000011
10
110.60000000000001
20
-79.175000000000011
42
-0.41421356237309503
10
111.09999999999999
20
-78.675000000000011
10
112.10000000000001
20
-78.675000000000011
42
-0.41421356237309503
10
112.59999999999999
20
-79.175000000000011
0
LWPOLYLINE
5
282
100
AcDbEntity
8
0
100
AcDbPolyline
90
8
70
1
43
0.0
10
143.60000000000002
20
-92.175000000000011
42
-0.41421356237309503
10
143.09999999999999
20
-92.675000000000011
10
142.09999999999999
20
-92.674999999999997
42
-0.41421356237309503
10
141.59999999999999
20
-92.175000000000011
10
141.59999999999999
20
-79.175000000000011
42
-0.41421356237309503
10
142.09999999999999
20
-78.675000000000011
10
143.09999999999999
20
-78.675000000000011
42
-0.41421356237309503
10
143.59999999999999
20
-79.175000000000011
0
LWPOLYLINE
5
283
100
AcDbEntity
8
0
100
AcDbPolyline
90
8
70
1
43
0.0
10
251.59999999999999
20
-92.175000000000011
42
-0.41421356237309503
10
251.09999999999999
20
-92.675000000000011
10
250.09999999999997
20
-92.674999999999983
42
-0.41421356237309503
10
249.60000000000002
20
-92.175000000000011
10
249.60000000000002
20
-79.175000000000011
42
-0.41421356237309503
10
250.09999999999997
20
-78.675000000000011
10
251.09999999999999
20
-78.67500000000004
42
-0.41421356237309503
10
251.59999999999997
20
-79.175000000000011
0
LWPOLYLINE
5
284
100
AcDbEntity
8
0
100
AcDbPolyline
90
8
70
1
43
0.0
10
259.90000000000003
20
-92.175000000000011
42
-0.41421356237309503
10
259.40000000000003
20
-92.675000000000011
10
258.39999999999998
20
-92.674999999999983
42
-0.41421356237309503
10
257.90000000000003
20
-92.175000000000011
10
257.89999999999998
20
-79.175000000000011
42
-0.41421356237309503
10
258.39999999999998
20
-78.675000000000011
10
259.40000000000003
20
-78.67500000000004
42
-0.41421356237309503
10
259.89999999999998
20
-79.175000000000011
0
ENDSEC
0
SECTION
2
OBJECTS
0
DICTIONARY
5
C
100
AcDbDictionary
3
ACAD_GROUP
350
D
3
ACAD_MLINESTYLE
350
17
0
DICTIONARY
5
D
100
AcDbDictionary
0
DICTIONARY
5
1A
330
C
100
AcDbDictionary
0
DICTIONARY
5
17
100
AcDbDictionary
0
ENDSEC
0
EOF
